<?xml version="1.0" encoding="utf-8"?>
<!-- Generator: Adobe Illustrator 18.1.1, SVG Export Plug-In . SVG Version: 6.00 Build 0)  -->
<svg version="1.1" id="Layer_0_xA0_Image_1_" xmlns="http://www.w3.org/2000/svg" xmlns:xlink="http://www.w3.org/1999/xlink"
	 x="0px" y="0px" viewBox="0 0 710 355" enable-background="new 0 0 710 355" xml:space="preserve">
<path fill="none" stroke="#FFFFFF" stroke-miterlimit="10" d="M254.6,115.4c0.2,0,0.4-0.1,0.6-0.1c0.3,0.8,0.6,1.5,0.9,2.3
	c6.6,17.7,13.2,35.4,19.9,53c0.3,0.8,1.2,1.5,1.9,2.2c0.7-0.7,1.8-1.4,2.1-2.3c7-17.3,14-34.7,20.9-52.1c0.3-0.7,0.7-1.5,1.3-2.8
	c0.2,1,0.2,1.3,0.2,1.5c0,15.7,0,31.5,0,47.2c0,3.3-1.8,5.2-5.1,5.7c-1.7,0.3-3.4,0.4-5.1,0.6c0,1.1,0,2,0,3c9.8,0,19.4,0,29.1,0
	c0-1.1,0-2,0-3.1c-1.3-0.2-2.5-0.4-3.7-0.6c-3.9-0.8-5.2-2.3-5.2-6.3c0-5.6,0-11.2,0-16.7c0-9.9,0-19.8,0-29.7
	c0-4.1,0.9-5.1,4.9-5.9c1.4-0.3,2.7-0.5,4-0.7c0-1.1,0-2,0-3.1c-6.9,0-13.6,0-20.3,0.1c-0.5,0-1.2,0.9-1.4,1.5
	c-0.8,2.3-1.3,4.7-2.1,6.9c-3.6,9.3-7.2,18.6-10.9,27.9c-1.7,4.3-3.4,8.6-5.2,13.3c-0.4-1-0.7-1.6-0.9-2.2
	c-5.8-15.1-11.6-30.3-17.3-45.4c-0.6-1.5-1.2-2.1-2.9-2c-2.3,0.1-4.7,0-7,0c-4.5,0-8.9,0-13.6,0c0,0.8-0.1,1.3-0.1,1.7
	c0,0.5,0.1,0.9,0.2,1.4c0.5,0.1,0.8,0.2,1.1,0.3c7.4,1.5,9.2,3.7,9.2,11.2c0,11.7,0,23.3,0,35c0,2.2-0.2,4.3-0.5,6.5
	c-0.4,3.3-2.2,5.5-5.6,6.2c-1.6,0.3-3.2,0.7-4.9,1.1c0.1,1.1,0.1,2,0.1,3c9,0,17.8,0,26.6,0c0-1.1,0-2.1,0-3.1
	c-1.6-0.4-3-0.8-4.5-1.1c-4-0.9-5.9-3.5-6.4-7.3c-0.3-2.3-0.5-4.6-0.5-7c0-12.6,0-25.2,0-37.7C254.6,116.9,254.6,116.1,254.6,115.4z
	"/>
<path fill="none" stroke="#FFFFFF" stroke-miterlimit="10" d="M410.7,110.6c-7.5-3.9-10.8-4.8-16.5-4.5c-8,0.5-15.2,5.5-17.5,12.4
	c-2.7,8.1-0.6,17.7,10.2,22.6c4.6,2.1,9.4,3.8,14.1,5.7c4.4,1.8,7.6,4.8,8.8,9.5c1.7,6.6-1.2,12.8-7.1,14.3
	c-5.7,1.5-11,0.7-15.8-3.1c-3.8-3-6.1-7-7.8-11.4c-0.6-1.6-1.2-3.2-1.7-4.8c-1.3,0-2.4,0-3.2,0c0,7.6,0,15,0,22.2
	c3.6,1.5,4.8-0.7,5.9-2.9c7.2,3.9,14.6,5.7,22.6,4.1c8.8-1.8,15.3-8.5,16.6-17.1c1.2-8.5-2.4-14.8-11.2-19.1
	c-3.7-1.8-7.7-3-11.5-4.8c-3.2-1.5-6.6-3-9.1-5.4c-6-5.8-3.4-15.5,4.4-17.6c4.5-1.2,8.7-0.5,12.5,2.6c4.4,3.6,6.1,8.6,7.7,13.7
	c1,3.1,0.9,3.1,4.2,2.5c0-7.2,0-14.4,0-21.4C413.1,106.6,411.8,108.3,410.7,110.6z"/>
<path fill="none" stroke="#FFFFFF" stroke-miterlimit="10" d="M422.3,127.9c0.8,1.4,1.2,2.9,2,3.2c3.4,1.2,5.2,3.5,6.3,6.8
	c3.7,11.5,7.6,22.9,11.3,34.3c0.4,1.3,0.9,2.1,2.5,2.1c1.6,0,2.3-0.6,2.8-2.1c1.7-4.9,3.5-9.7,5.3-14.5c2.1-5.6,4.1-11.1,6.4-17.2
	c0.5,1.3,0.9,2,1.1,2.7c3.6,9.8,7.2,19.5,10.6,29.3c0.6,1.7,1.7,1.7,3,1.7c1.4,0.1,1.8-0.5,2.2-1.7c3.8-11.7,7.7-23.4,11.6-35
	c1-3.1,2.8-5.3,5.9-6.2c2.1-0.6,2.3-1.7,1.6-3.4c-5.8,0-11.4,0-17.1,0c0,1,0,1.8,0,2.7c0.9,0.2,1.8,0.4,2.7,0.6
	c3.2,0.9,3.9,2.1,3,5.3c-0.5,1.8-1,3.7-1.6,5.5c-2,6.2-4.1,12.4-6.3,19.2c-0.6-1.3-0.9-2.1-1.1-2.8c-3.4-9.2-6.8-18.4-10.1-27.6
	c-0.6-1.8-1.6-2.1-3.2-2.2c-1.9-0.1-2.4,0.8-2.9,2.3c-1.2,3.6-2.5,7.1-3.7,10.6c-2.3,6.6-4.7,13.2-7.2,20.2c-0.4-1-0.6-1.5-0.8-2.1
	c-2.3-7.4-4.7-14.7-6.9-22.2c-1.5-5.2-2.8-5.3,3.8-6.6c0-0.9,0-1.9,0-3C436.6,127.9,429.9,127.9,422.3,127.9z"/>
<path fill="none" stroke="#FFFFFF" stroke-miterlimit="10" d="M573.2,131c6.9,2.1,7.3,2.7,7.3,10c0,7.2,0,14.3,0,21.5
	c0,7.1,0,7.1-6.7,8.6c0,0.8,0,1.7,0,2.7c7.4,0,14.8,0,22.3,0c0-1.1,0-2,0-2.9c-6.2-1.1-6.9-2-6.9-8.1c0-7.2-0.1-14.3,0.1-21.5
	c0-1.7,0.8-3.6,1.9-4.9c2.3-2.8,5.5-4.2,9.2-4.4c3.9-0.2,7,1.8,8.1,5.6c0.5,1.6,0.6,3.3,0.6,4.9c0.1,7.1,0,14.2,0,21.2
	c0,5.8-0.4,6.2-6.3,6.9c-0.2,0-0.4,0.2-0.6,0.3c0,0.9,0,1.8,0,2.7c7.5,0,14.9,0,22.3,0c0-0.6,0.1-1,0.1-1.4c0-0.5-0.1-1-0.2-1.4
	c-6-1.2-6.5-1.8-6.5-7.8c0-6.7,0-13.5,0-20.2c0-1.9-0.1-3.8-0.4-5.7c-1.1-6.9-5.5-10.6-12.5-10.7c-4.7-0.1-8.8,1.4-12.3,4.7
	c-1.1,1-2.1,1.9-3.6,3.3c0-2.3,0.1-3.9-0.1-5.5c-0.1-0.6-1-1.6-1.5-1.6c-4.8,0.2-9.6,0.6-14.4,1C573.2,129.4,573.2,130.2,573.2,131z
	"/>
<path fill="none" stroke="#FFFFFF" stroke-miterlimit="10" d="M366.4,161.3c-1.2,1.5-2.2,3-3.5,4.4c-6.4,6.8-16.8,5.6-21-2.7
	c-4.5-9-4.1-18.2,0.1-27.2c2.2-4.7,6.7-6.5,11.7-5.5c2.8,0.6,3.5,1.7,3,4.5c-0.3,1.7-0.7,3.4-0.7,5.2c0,2.5,1.8,4.1,4.7,4.6
	c2.6,0.4,4.5-0.7,5.3-3.1c1.7-4.7-0.6-10.1-5.3-12.7c-8.4-4.6-20-2-26.1,5.9c-6.6,8.5-7.3,22.2-1.6,31.3c4.3,6.9,10.8,9.8,18.7,9.2
	c7.9-0.6,13.4-5.1,17.5-11.9C368.2,162.5,367.3,161.9,366.4,161.3z"/>
<path fill="none" stroke="#FFFFFF" stroke-miterlimit="10" d="M544.3,131.1c0.6,0.2,1.1,0.4,1.7,0.5c5.3,1.1,6.5,2.6,6.5,8
	c0,7.7,0,15.5,0,23.2c0,6.9,0,6.9-6.7,8.3c0,0.8,0,1.7,0,2.7c7.4,0,14.8,0,22.1,0c0-1.1,0-1.9,0-2.8c-6.2-1.4-6.7-2-6.7-8.2
	c0-6.2,0-12.3,0-18.5c0-5,0.1-10-0.1-15c0-0.7-0.9-2-1.4-2c-5.1,0.2-10.3,0.6-15.4,1C544.3,129.3,544.3,130.1,544.3,131.1z"/>
<path fill="none" stroke="#FFFFFF" stroke-miterlimit="10" d="M562.1,109c0-3.4-2.6-6-6-6c-3.3,0-6,2.9-6,6.4c0,3.3,2.8,6.2,5.9,6.2
	C559.3,115.7,562.1,112.6,562.1,109z"/>
<path fill="none" stroke="#FFFFFF" stroke-miterlimit="10" d="M254.6,115.4c0,0.7,0,1.4,0,2.1c0,12.6,0,25.2,0,37.7
	c0,2.3,0.2,4.7,0.5,7c0.5,3.9,2.4,6.5,6.4,7.3c1.5,0.3,2.9,0.7,4.5,1.1c0,1,0,2,0,3.1c-8.8,0-17.6,0-26.6,0c0-1-0.1-1.9-0.1-3
	c1.7-0.4,3.3-0.7,4.9-1.1c3.4-0.7,5.2-2.9,5.6-6.2c0.3-2.1,0.5-4.3,0.5-6.5c0-11.7,0-23.3,0-35c0-7.5-1.8-9.7-9.2-11.2
	c-0.3-0.1-0.6-0.2-1.1-0.3c-0.1-0.4-0.2-0.9-0.2-1.4c0-0.5,0.1-1,0.1-1.7c4.6,0,9.1,0,13.6,0c2.3,0,4.7,0.1,7,0
	c1.6-0.1,2.3,0.5,2.9,2c5.7,15.2,11.5,30.3,17.3,45.4c0.2,0.6,0.5,1.2,0.9,2.2c1.8-4.7,3.5-9,5.2-13.3c3.6-9.3,7.3-18.6,10.9-27.9
	c0.9-2.2,1.3-4.6,2.1-6.9c0.2-0.6,0.9-1.5,1.4-1.5c6.7-0.1,13.5-0.1,20.3-0.1c0,1.1,0,2,0,3.1c-1.3,0.2-2.6,0.4-4,0.7
	c-4,0.8-4.9,1.9-4.9,5.9c0,9.9,0,19.8,0,29.7c0,5.6,0,11.2,0,16.7c0,4,1.3,5.5,5.2,6.3c1.2,0.2,2.4,0.4,3.7,0.6c0,1.1,0,2,0,3.1
	c-9.7,0-19.4,0-29.1,0c0-1,0-1.9,0-3c1.7-0.2,3.4-0.4,5.1-0.6c3.4-0.5,5.1-2.4,5.1-5.7c0-15.7,0-31.5,0-47.2c0-0.2-0.1-0.5-0.2-1.5
	c-0.6,1.3-1,2-1.3,2.8c-7,17.4-13.9,34.7-20.9,52.1c-0.4,0.9-1.4,1.5-2.1,2.3c-0.6-0.7-1.5-1.4-1.9-2.2c-6.7-17.7-13.3-35.3-19.9-53
	c-0.3-0.8-0.6-1.5-0.9-2.3C255.1,115.4,254.9,115.4,254.6,115.4z"/>
<path fill="none" stroke="#FFFFFF" stroke-miterlimit="10" d="M410.7,110.6c1.1-2.2,2.5-4,5.6-2.6c0,7,0,14.1,0,21.4
	c-3.2,0.7-3.2,0.7-4.2-2.5c-1.6-5.1-3.3-10.1-7.7-13.7c-3.7-3-8-3.8-12.5-2.6c-7.8,2.1-10.3,11.8-4.4,17.6c2.5,2.4,5.9,3.9,9.1,5.4
	c3.7,1.8,7.8,3,11.5,4.8c8.8,4.4,12.4,10.7,11.2,19.1c-1.2,8.7-7.7,15.4-16.6,17.1c-8,1.6-15.4-0.1-22.6-4.1
	c-1.1,2.2-2.3,4.4-5.9,2.9c0-7.2,0-14.7,0-22.2c0.8,0,1.9,0,3.2,0c0.5,1.5,1.1,3.1,1.7,4.8c1.7,4.4,4,8.4,7.8,11.4
	c4.7,3.8,10.1,4.5,15.8,3.1c5.8-1.5,8.8-7.7,7.1-14.3c-1.3-4.7-4.4-7.7-8.8-9.5c-4.7-1.9-9.5-3.6-14.1-5.7
	c-10.8-4.9-12.9-14.5-10.2-22.6c2.3-6.9,9.5-11.9,17.5-12.4C399.9,105.7,403.1,106.6,410.7,110.6z"/>
<path fill="none" stroke="#FFFFFF" stroke-miterlimit="10" d="M422.3,127.9c7.6,0,14.3,0,21.1,0c0,1.1,0,2,0,3
	c-6.6,1.4-5.3,1.5-3.8,6.6c2.2,7.4,4.6,14.8,6.9,22.2c0.2,0.5,0.4,1.1,0.8,2.1c2.5-7,4.9-13.6,7.2-20.2c1.3-3.5,2.5-7,3.7-10.6
	c0.5-1.5,1-2.4,2.9-2.3c1.7,0.1,2.6,0.4,3.2,2.2c3.3,9.2,6.7,18.4,10.1,27.6c0.3,0.7,0.6,1.5,1.1,2.8c2.2-6.8,4.3-13,6.3-19.2
	c0.6-1.8,1.1-3.7,1.6-5.5c0.9-3.2,0.2-4.4-3-5.3c-0.9-0.2-1.8-0.4-2.7-0.6c0-1,0-1.8,0-2.7c5.8,0,11.4,0,17.1,0
	c0.7,1.6,0.6,2.8-1.6,3.4c-3.1,0.9-4.9,3.2-5.9,6.2c-3.8,11.7-7.7,23.4-11.6,35c-0.4,1.2-0.9,1.8-2.2,1.7c-1.4-0.1-2.4,0-3-1.7
	c-3.5-9.8-7.1-19.5-10.6-29.3c-0.3-0.8-0.6-1.5-1.1-2.7c-2.3,6.1-4.3,11.7-6.4,17.2c-1.8,4.8-3.6,9.6-5.3,14.5
	c-0.5,1.5-1.2,2-2.8,2.1c-1.6,0-2.1-0.7-2.5-2.1c-3.8-11.5-7.7-22.9-11.3-34.3c-1.1-3.4-2.9-5.7-6.3-6.8
	C423.6,130.8,423.2,129.3,422.3,127.9z"/>
<path fill="none" stroke="#FFFFFF" stroke-miterlimit="10" d="M573.2,131c0-0.8,0-1.6,0-2.7c4.8-0.3,9.6-0.7,14.4-1
	c0.5,0,1.4,1,1.5,1.6c0.2,1.6,0.1,3.3,0.1,5.5c1.5-1.3,2.6-2.3,3.6-3.3c3.5-3.2,7.6-4.7,12.3-4.7c7,0.1,11.5,3.8,12.5,10.7
	c0.3,1.9,0.4,3.8,0.4,5.7c0.1,6.7,0,13.5,0,20.2c0,6,0.5,6.6,6.5,7.8c0.1,0.4,0.1,0.9,0.2,1.4c0,0.4-0.1,0.8-0.1,1.4
	c-7.4,0-14.8,0-22.3,0c0-0.9,0-1.8,0-2.7c0.2-0.1,0.4-0.3,0.6-0.3c5.9-0.7,6.3-1.1,6.3-6.9c0-7.1,0-14.2,0-21.2
	c0-1.6-0.2-3.3-0.6-4.9c-1.1-3.8-4.2-5.8-8.1-5.6c-3.7,0.2-6.9,1.6-9.2,4.4c-1.1,1.3-1.8,3.2-1.9,4.9c-0.2,7.2-0.1,14.3-0.1,21.5
	c0,6.1,0.7,6.9,6.9,8.1c0,0.9,0,1.8,0,2.9c-7.5,0-14.8,0-22.3,0c0-1,0-1.9,0-2.7c6.7-1.5,6.7-1.5,6.7-8.6c0-7.2,0-14.3,0-21.5
	C580.5,133.6,580.1,133.1,573.2,131z"/>
<path fill="none" stroke="#FFFFFF" stroke-miterlimit="10" d="M540.8,170.2c0.8,2.2,0,3.3-2,3.6c-1.8,0.3-3.6,0.8-5.4,0.9
	c-4.5,0.2-7.5-1.8-8.7-6.6c-1.3,1.1-2.4,2.1-3.5,3c-4.1,3.3-8.9,4.5-14.1,3.6c-4.6-0.7-7.8-3.3-9-7.9c-1.3-5-0.4-9.7,3.8-13.1
	c2-1.6,4.4-2.6,6.8-3.6c4.6-1.8,9.4-3.4,14.1-5c1.2-0.4,2-1,1.8-2.5c-0.2-2-0.1-4-0.5-5.9c-1.4-6.4-8.5-9.2-13.9-5.4
	c-0.6,0.4-0.9,1.5-0.9,2.2c0,1,0.4,1.9,0.5,2.9c0.5,3.3-1.3,5.7-4.7,6c-3,0.3-5.3-1.6-5.2-4.9c0-1.6,0.6-3.4,1.5-4.6
	c1.5-1.7,3.4-3.2,5.4-4.3c5.5-2.9,11.4-2.9,17.3-1.5c4.9,1.1,8.3,5.1,8.8,10.3c0.4,3.8,0.3,7.6,0.3,11.5c0,5-0.2,10-0.2,15
	c0,4.4,1.5,5.9,5.8,6C539.6,170.1,540.2,170.2,540.8,170.2z M524.4,148.2c-3.4,1.3-6.7,2.4-9.8,3.9c-2.1,1.1-4.1,2.6-5.6,4.4
	c-2.4,2.7-2.6,7.8-0.8,10.5c1.7,2.5,5.2,3.6,9,2.5c3.1-0.9,6.5-2.5,7-5.7C525,158.9,524.4,153.8,524.4,148.2z"/>
<path fill="none" stroke="#FFFFFF" stroke-miterlimit="10" d="M366.4,161.3c0.9,0.6,1.8,1.1,2.9,1.8c-4.1,6.8-9.6,11.3-17.5,11.9
	c-7.9,0.6-14.4-2.3-18.7-9.2c-5.7-9.2-5-22.8,1.6-31.3c6.1-7.9,17.7-10.5,26.1-5.9c4.7,2.6,7,8,5.3,12.7c-0.8,2.4-2.7,3.5-5.3,3.1
	c-2.9-0.4-4.7-2-4.7-4.6c0-1.7,0.3-3.5,0.7-5.2c0.6-2.8-0.2-4-3-4.5c-5-1-9.5,0.8-11.7,5.5c-4.2,9-4.6,18.2-0.1,27.2
	c4.2,8.3,14.6,9.5,21,2.7C364.1,164.4,365.2,162.9,366.4,161.3z"/>
<path fill="none" stroke="#FFFFFF" stroke-miterlimit="10" d="M544.3,131.1c0-0.9,0-1.7,0-2.8c5.2-0.4,10.3-0.8,15.4-1
	c0.5,0,1.4,1.3,1.4,2c0.1,5,0.1,10,0.1,15c0,6.2,0,12.3,0,18.5c0,6.2,0.5,6.8,6.7,8.2c0,0.8,0,1.7,0,2.8c-7.3,0-14.7,0-22.1,0
	c0-1,0-1.9,0-2.7c6.7-1.4,6.7-1.4,6.7-8.3c0-7.7,0-15.5,0-23.2c0-5.4-1.2-6.8-6.5-8C545.4,131.4,544.9,131.2,544.3,131.1z"/>
<path fill="none" stroke="#FFFFFF" stroke-miterlimit="10" d="M562.1,109c0,3.6-2.8,6.6-6.1,6.6c-3.1,0-5.9-2.9-5.9-6.2
	c0-3.5,2.7-6.4,6-6.4C559.5,103,562.1,105.6,562.1,109z"/>
<path fill="none" stroke="#FFFFFF" stroke-miterlimit="10" d="M440.1,215.2c1,1.4,1.7,2.9,2.9,4c3.4,3,11.7,2.9,15.3,0
	c3.7-3,3.1-8.9-1.1-11.1c-1.6-0.8-3.4-1.2-5.2-1.8c-1.8-0.6-3.8-0.8-5.4-1.8c-1.1-0.7-2.3-2.5-2.2-3.7c0.1-1.3,1.3-3.1,2.6-3.8
	c4-2.1,8.4-0.5,10.7,3.5c0.7-0.1,1.5-0.3,3.2-0.7c-1.7-1.8-2.8-3.7-4.4-4.5c-3.7-1.8-7.8-1.7-11.6,0.1c-2,0.9-3.1,2.7-3.3,5
	c-0.3,3.7,1.5,5.9,5.8,7.2c2.6,0.8,5.3,1.4,7.8,2.4c1.9,0.7,2.9,2.3,2.7,4.3c-0.2,2-1.2,3.5-3.1,4.1c-5.5,1.7-10,0.7-12.2-4
	c-0.5,0.1-1,0.1-1.4,0.3C441,214.7,440.8,214.9,440.1,215.2z"/>
<path fill="none" stroke="#FFFFFF" stroke-miterlimit="10" d="M493.5,220.9c0-6.4,0-12.6,0-18.9c-0.8,0-1.5,0-2.4,0
	c0,3.8,0.1,7.4,0,11.1c-0.1,3.8-2.8,6.4-6.4,6.3c-3.4-0.1-5.1-2.1-5.1-6.3c0-3.4,0-6.8,0-10.2c0-0.3-0.2-0.6-0.2-0.9
	c-0.7,0-1.4,0-2.1,0c0,4.7-0.2,9.2,0.1,13.8c0.3,3.6,2.8,5.5,6.4,5.6c3.1,0.1,5.4-1.2,7.1-3.6C491.8,218.9,490.5,221.6,493.5,220.9z
	"/>
<path fill="none" stroke="#FFFFFF" stroke-miterlimit="10" d="M410.9,204.5c0,0,0-0.4-0.1-0.6c-0.4-0.7-0.9-1.4-1.4-2.1
	c-0.3,0.7-0.9,1.4-0.9,2.1c-0.1,5.2,0,10.5,0,15.7c0,0.4,0.1,0.8,0.2,1.3c0.8-0.1,1.5-0.1,2.4-0.2c0-3.9-0.1-7.7,0-11.4
	c0.2-3.5,2.8-5.9,6.2-5.9c3.3,0,5.1,2,5.2,6c0,1.1,0,2.2,0,3.2c0,2.7,0,5.4,0,8.4c1.1-0.1,1.8-0.2,2.5-0.3c0-4.3,0.1-8.4,0-12.5
	c-0.2-4.8-3.2-7.4-7.9-6.7C415,202,413.1,203.5,410.9,204.5z"/>
<path fill="none" stroke="#FFFFFF" stroke-miterlimit="10" d="M356.2,215.9c-0.2,0.2-0.3,0.5-0.5,0.7c0.8,3.2,2.6,4.4,6.6,4.6
	c4.7,0.3,7.8-1,8.8-3.7c1.1-2.9-0.1-5.3-3.4-6.4c-2.3-0.8-4.7-1.2-6.9-2c-2.5-0.9-2.9-3.3-1-4.8c2.2-1.7,6.7-1,8.4,1.1
	c0.5,0.6,1.5,0.8,2.7,1.4c-1-3.6-2.6-4.9-5.6-5.2c-3.2-0.3-6.4-0.4-8.5,2.7c-0.1,0.1-0.2,0.3-0.2,0.4c-1.2,2.7,0,5.3,3,6.3
	c2.3,0.8,4.8,1.2,7.2,2.1c2.5,0.9,2.9,3.3,1.2,4.9c-2.2,2.2-7.9,1.7-9.7-0.8C357.9,216.7,356.9,216.4,356.2,215.9z"/>
<path fill="none" stroke="#FFFFFF" stroke-miterlimit="10" d="M466.3,204.6c0,0.4,0,1.2,0,2c0,3.3-0.1,6.7,0,10
	c0.1,3.9,2.5,5.6,6.1,4.5c0.5-0.2,0.8-0.9,1.4-1.6c-2.1-0.5-4.6,0.6-4.8-2c-0.3-4.4-0.1-8.9-0.1-13.6c1.1,0,2,0.1,2.9,0
	c0.4-0.1,0.8-0.5,1.2-0.8c-0.4-0.4-0.8-1-1.3-1.1c-0.9-0.2-1.9-0.1-3-0.1c0-1.1,0.1-1.9,0-2.6c-0.1-0.6-0.6-1.1-0.9-1.7
	c-0.3,0.5-0.8,0.9-1,1.4c-0.3,0.8-0.4,1.8-0.5,2.1c-1.1,0.8-1.9,1.3-2.7,1.8C464.5,203.3,465.2,203.8,466.3,204.6z"/>
<path fill="none" stroke="#FFFFFF" stroke-miterlimit="10" d="M376.3,202.1c0,5.9,0,11.9,0.1,17.8c0,0.4,0.9,0.8,1.4,1.2
	c0.4-0.5,1.1-1,1.1-1.6c0.1-5.4,0-10.8,0.1-16.2C379,201.4,377.8,201.7,376.3,202.1z"/>
<path fill="none" stroke="#FFFFFF" stroke-miterlimit="10" d="M523.3,201.9c0,6.5,0,12.7,0,18.9c0.8,0,1.5,0,2.2,0
	c0-6.4,0-12.7,0-19C524.7,201.8,524.1,201.9,523.3,201.9z"/>
<path fill="none" stroke="#FFFFFF" stroke-miterlimit="10" d="M376.4,196.7c0.9-0.1,1.6-0.1,2.4-0.2c0-1,0-1.8,0-2.7
	c-0.8,0-1.5,0-2.4,0C376.4,194.7,376.4,195.5,376.4,196.7z"/>
<path fill="none" stroke="#FFFFFF" stroke-miterlimit="10" d="M523.4,196.9c0.9-0.4,1.8-0.5,2.2-1c0.3-0.4,0.1-1.4,0.1-2.2
	c-1,0.1-1.7,0.1-2.5,0.2c0,0.7,0,1.1,0,1.6C523.2,195.8,523.3,196.1,523.4,196.9z"/>
<path fill="none" stroke="#FFFFFF" stroke-miterlimit="10" d="M307.5,220.8c0-8.8,0-17.4,0-26c4.1,0,8-0.4,11.9,0.1
	c6.8,0.8,10.5,5.5,10.4,12.7c0,7.4-3.8,12.4-10.6,13.1C315.4,221.1,311.6,220.8,307.5,220.8z M310.3,196.5c0,7.7,0,14.8,0,22.2
	c1.8,0,3.5,0,5.1,0c8.7,0,13.2-5.6,11.4-14.3c-0.8-3.7-2.9-6.3-6.6-7C317,196.8,313.7,196.8,310.3,196.5z"/>
<path fill="none" stroke="#FFFFFF" stroke-miterlimit="10" d="M399.5,217.5c-2.2,2.9-4.7,3.8-7.6,3.7c-3.4-0.1-6.2-1.7-6.9-5
	c-0.6-3-0.8-6.4-0.1-9.3c1.4-5.5,8.7-7.3,13-3.6c0.5,0.4,0.7,1.1,1.4,2.1c0.5-2.2-0.2-4.5,2.7-3.5c0,6.9,0.3,13.8-0.1,20.6
	c-0.2,4.3-3.2,6.5-7.8,6.9c-4.5,0.4-7.8-1.3-9.3-5.4c1.4,0.6,2.6,0.7,3.2,1.3c2.1,2.2,4.6,2.5,7.3,1.9c2.7-0.7,3.9-2.7,4.2-5.3
	C399.6,220.8,399.5,219.4,399.5,217.5z M399.6,211.4c0-4.2-1.7-7-4.6-7.7c-3.8-0.9-6.8,0.7-7.9,4.2c-1.5,4.9,0.2,9.8,3.7,11
	c0.4,0.1,0.8,0.2,1.2,0.3C396.8,219.8,399.6,216.8,399.6,211.4z"/>
<path fill="none" stroke="#FFFFFF" stroke-miterlimit="10" d="M514.3,204.6c0-2.1,0-3.9,0-5.6c0-1.7,0-3.3,0-5.1
	c0.9,0,1.6-0.1,2.3-0.1c0.1,0.4,0.3,0.6,0.3,0.8c0,8.3,0.1,16.6,0,24.9c0,0.6-0.9,1.2-1.4,1.9c-0.2-0.1-0.5-0.3-0.7-0.4
	c-0.2-0.9-0.4-1.7-0.6-3c-2.3,2.9-5.1,3.7-8.3,3.4c-0.7-0.1-1.5-0.2-2.2-0.5c-3.9-1.8-4.8-5.3-4.8-9.1c0-3.9,0.8-7.6,4.8-9.3
	c3.4-1.4,6.8-1.1,9.7,1.7C513.5,204.1,513.7,204.2,514.3,204.6z M501.5,211.4c0,4.2,1.4,6.8,4.2,7.7c3.7,1.1,7-0.5,8.2-4.1
	c1.6-4.8-0.1-10-3.7-11.2c-0.2-0.1-0.5-0.1-0.7-0.2C504.6,202.7,501.5,205.6,501.5,211.4z"/>
<path fill="none" stroke="#FFFFFF" stroke-miterlimit="10" d="M440.1,215.2c0.7-0.3,0.9-0.5,1.2-0.5c0.5-0.1,1-0.2,1.4-0.3
	c2.1,4.7,6.7,5.8,12.2,4c1.9-0.6,3-2.1,3.1-4.1c0.2-2.1-0.8-3.6-2.7-4.3c-2.6-1-5.2-1.6-7.8-2.4c-4.3-1.4-6.1-3.6-5.8-7.2
	c0.2-2.3,1.3-4,3.3-5c3.8-1.8,7.8-1.9,11.6-0.1c1.6,0.8,2.7,2.6,4.4,4.5c-1.7,0.3-2.5,0.5-3.2,0.7c-2.3-4-6.7-5.5-10.7-3.5
	c-1.2,0.6-2.5,2.4-2.6,3.8c-0.1,1.2,1.1,3,2.2,3.7c1.5,1,3.6,1.2,5.4,1.8c1.7,0.6,3.5,1,5.2,1.8c4.2,2.2,4.7,8.1,1.1,11.1
	c-3.5,2.9-11.9,3-15.3,0C441.8,218.1,441.1,216.6,440.1,215.2z"/>
<path fill="none" stroke="#FFFFFF" stroke-miterlimit="10" d="M351.8,212c-2.4,0-4.9,0-7.4,0c-2.4,0-4.8,0-7.2,0
	c-0.4,3.2,0.7,5.6,3.1,6.8c2.6,1.3,6.2,0.6,8.1-1.3c0.7-0.7,1.7-1.1,2.8-1.4c-0.7,4.6-6.4,6.2-11,4.9c-4.8-1.3-7.1-6.9-5.6-13
	c1.1-4.7,5.5-7.2,10.9-6.2C349.9,202.5,352.6,206.7,351.8,212z M337.3,210c4,0,8.1,0,12.1,0c-0.2-4.5-2.4-6.7-6.5-6.4
	C339.1,203.7,337,206.2,337.3,210z"/>
<path fill="none" stroke="#FFFFFF" stroke-miterlimit="10" d="M549.7,211.4c0,6.3-3.6,10-9.6,9.9c-5.7-0.1-9.1-3.7-9.2-9.9
	c0-6.3,3.5-10,9.5-9.9C546.5,201.6,549.8,205,549.7,211.4z M547.1,211c0-0.2,0-0.7-0.1-1.2c-0.5-4.4-2.7-6.4-6.8-6.3
	c-4,0.1-6.3,2.4-6.6,6.6c-0.1,1.3-0.1,2.7,0.2,4c0.7,3.6,3.1,5.4,6.8,5.2C544.9,219.2,547.1,216.4,547.1,211z"/>
<path fill="none" stroke="#FFFFFF" stroke-miterlimit="10" d="M493.5,220.9c-3,0.7-1.7-1.9-2.7-3.2c-1.7,2.5-4.1,3.8-7.1,3.6
	c-3.7-0.2-6.2-2-6.4-5.6c-0.3-4.5-0.1-9.1-0.1-13.8c0.8,0,1.4,0,2.1,0c0.1,0.3,0.2,0.6,0.2,0.9c0,3.4,0,6.8,0,10.2
	c0,4.2,1.7,6.2,5.1,6.3c3.5,0.1,6.2-2.5,6.4-6.3c0.1-3.6,0-7.3,0-11.1c0.9,0,1.6,0,2.4,0C493.5,208.2,493.5,214.4,493.5,220.9z"/>
<path fill="none" stroke="#FFFFFF" stroke-miterlimit="10" d="M410.9,204.5c2.1-1,4.1-2.5,6.2-2.8c4.7-0.8,7.7,1.9,7.9,6.7
	c0.2,4.1,0,8.2,0,12.5c-0.7,0.1-1.4,0.2-2.5,0.3c0-2.9,0-5.6,0-8.4c0-1.1,0-2.2,0-3.2c-0.2-4-1.9-5.9-5.2-6c-3.4,0-6,2.3-6.2,5.9
	c-0.2,3.7,0,7.5,0,11.4c-0.9,0.1-1.6,0.1-2.4,0.2c-0.1-0.6-0.2-1-0.2-1.3c0-5.2-0.1-10.5,0-15.7c0-0.7,0.6-1.4,0.9-2.1
	c0.5,0.7,0.9,1.4,1.4,2.1C410.9,204.1,410.9,204.5,410.9,204.5z"/>
<path fill="none" stroke="#FFFFFF" stroke-miterlimit="10" d="M356.2,215.9c0.7,0.5,1.7,0.8,2.2,1.4c1.9,2.4,7.5,3,9.7,0.8
	c1.7-1.7,1.2-4-1.2-4.9c-2.3-0.9-4.8-1.3-7.2-2.1c-3-1.1-4.2-3.6-3-6.3c0.1-0.2,0.1-0.3,0.2-0.4c2.1-3.1,5.4-2.9,8.5-2.7
	c3,0.2,4.5,1.6,5.6,5.2c-1.3-0.6-2.3-0.8-2.7-1.4c-1.7-2.1-6.2-2.7-8.4-1.1c-1.9,1.5-1.5,3.9,1,4.8c2.3,0.8,4.7,1.2,6.9,2
	c3.2,1.1,4.4,3.5,3.4,6.4c-1,2.7-4.1,4-8.8,3.7c-4.1-0.2-5.8-1.5-6.6-4.6C355.9,216.4,356,216.2,356.2,215.9z"/>
<path fill="none" stroke="#FFFFFF" stroke-miterlimit="10" d="M466.3,204.6c-1.1-0.7-1.8-1.2-2.5-1.7c0.8-0.5,1.6-1.1,2.7-1.8
	c0.1-0.4,0.2-1.3,0.5-2.1c0.2-0.5,0.7-0.9,1-1.4c0.3,0.6,0.8,1.1,0.9,1.7c0.2,0.7,0,1.5,0,2.6c1.1,0,2.1-0.1,3,0.1
	c0.5,0.1,0.8,0.7,1.3,1.1c-0.4,0.3-0.8,0.8-1.2,0.8c-0.9,0.1-1.8,0-2.9,0c0,4.7-0.2,9.2,0.1,13.6c0.1,2.6,2.7,1.5,4.8,2
	c-0.6,0.7-0.9,1.5-1.4,1.6c-3.6,1.1-6.1-0.6-6.1-4.5c-0.1-3.3,0-6.6,0-10C466.3,205.8,466.3,205,466.3,204.6z"/>
<path fill="none" stroke="#FFFFFF" stroke-miterlimit="10" d="M376.3,202.1c1.5-0.4,2.6-0.7,2.6,1.2c0,5.4,0,10.8-0.1,16.2
	c0,0.5-0.7,1-1.1,1.6c-0.5-0.4-1.4-0.8-1.4-1.2C376.3,213.9,376.3,208,376.3,202.1z"/>
<path fill="none" stroke="#FFFFFF" stroke-miterlimit="10" d="M523.3,201.9c0.8,0,1.4-0.1,2.2-0.1c0,6.4,0,12.6,0,19
	c-0.7,0-1.4,0-2.2,0C523.3,214.6,523.3,208.4,523.3,201.9z"/>
<path fill="none" stroke="#FFFFFF" stroke-miterlimit="10" d="M376.4,196.7c0-1.2,0-2,0-2.9c0.8,0,1.6,0,2.4,0c0,0.9,0,1.7,0,2.7
	C378.1,196.5,377.3,196.6,376.4,196.7z"/>
<path fill="none" stroke="#FFFFFF" stroke-miterlimit="10" d="M523.4,196.9c-0.1-0.8-0.2-1.1-0.2-1.4c0-0.5,0-1,0-1.6
	c0.8-0.1,1.5-0.1,2.5-0.2c0,0.9,0.3,1.8-0.1,2.2C525.2,196.4,524.3,196.5,523.4,196.9z"/>
<path fill="none" stroke="#FFFFFF" stroke-miterlimit="10" d="M107.6,231.1c-2.7,1.4-5.2,2.9-7.8,3.9c-6.8,2.5-12.4-0.8-13.7-8
	c-1.1-6.2-0.5-12.3,0.8-18.3c1.6-7.1,3.5-14,5.3-21c0.1-0.5,0.3-1.1,0.4-1.9c-20.9,0-41.6,0-62.4,0c0-1.4,0-2.5,0-3.9
	c36,0,71.8,0,107.9,0c-0.6-4.1-1.2-7.8-1.6-11.6c-1.5-13.9-0.7-27.8,1.6-41.6c3.5-20.9,9.7-40.9,19.4-59.8
	c5.7-11.2,13.2-21.1,23.8-28.1c2.9-1.9,6.1-3.5,9.4-4.4c8.9-2.4,15.8,2.5,17.3,11.6c1.2,7.4,0,14.6-1.9,21.7
	c-3.9,15.3-10.4,29.6-17.6,43.6c-3.5,6.8-7.3,13.5-11,20.2c-0.4,0.8-0.8,1.6-1.5,3c1.9-1.2,3.2-2,4.5-2.7c1.3-0.7,2.7-1.4,4.1-1.8
	c6.6-2.2,12,0.9,13.4,7.8c1.4,7.3,0.3,14.5-1.3,21.5c-1.5,6.7-3.4,13.3-5.2,20.3c158.3,0,316.5,0,474.9,0c0,1.4,0,2.6,0,4
	c-173.4,0-346.8,0-520.1,0c0.6,5.3,1.4,10.3,1.7,15.3c1.2,18-0.9,35.8-5.4,53.2c-4.4,17-9.9,33.7-19,48.9
	c-6.1,10.1-13.5,19-24.1,24.8c-1.9,1-3.9,1.8-6,2.4c-9.3,2.4-16.2-2.5-17.5-11.9c-1.1-7.3,0.1-14.4,1.9-21.5
	c3.9-15.5,10.6-29.9,17.8-44.1c3.4-6.6,7.1-13,10.6-19.5C106.8,232.5,107.2,231.8,107.6,231.1z M143.6,174.7
	c0.8-0.9,1.1-1.2,1.4-1.6c15.9-23.5,30.9-47.6,43-73.3c5.5-11.7,10.4-23.6,12.9-36.3c1-5.2,1.8-10.5,0.2-15.8
	c-1.2-4.2-3.7-5.9-7.9-4.8c-2.9,0.7-5.9,2-8.4,3.7c-9.7,6.5-16.6,15.6-21.7,26c-13.8,28.5-21.6,58.4-20.6,90.3
	C142.8,166.5,143.3,170.3,143.6,174.7z M140.5,192.5c-0.6,0.7-0.9,1-1.1,1.3c-16.3,23.3-31,47.6-43.2,73.3
	c-5.5,11.7-10.4,23.6-12.9,36.4c-1,5.1-1.7,10.2-0.3,15.3c1.3,4.7,4.2,6.6,8.8,4.9c3.8-1.4,7.5-3.4,10.6-5.8
	c9.6-7.6,16.1-17.7,21.1-28.7c9-20.3,15.2-41.4,17.4-63.5C142,214.8,142.1,203.9,140.5,192.5z M147.4,181.4c0.6,0.2,0.8,0.3,1.1,0.3
	c11.4,0,22.8,0,34.2-0.1c0.7,0,1.9-1,2.1-1.8c2.2-7.9,4.6-15.8,6.2-23.9c0.9-4.7,0.8-9.7,0.6-14.6c-0.1-3.2-2.1-4.3-5.1-2.8
	c-2.9,1.5-6,3.1-8.3,5.4c-6.6,6.9-13.1,14-19.2,21.3C154.8,170.4,151.3,175.9,147.4,181.4z M136.5,185.7c-12.2,0-23.6,0-35.1,0.1
	c-0.7,0-1.8,1.1-2,1.9c-2.3,8.7-4.7,17.3-6.5,26.1c-0.8,3.7-0.5,7.8-0.2,11.6c0.3,3.7,2.1,4.5,5.5,3.1c1.7-0.7,3.3-1.7,4.7-2.8
	c9.4-7,16.5-16.2,23.5-25.4C129.8,195.8,132.9,190.9,136.5,185.7z"/>
</svg>
