<?xml version="1.0" encoding="utf-8"?>
<!-- Generator: Adobe Illustrator 19.0.0, SVG Export Plug-In . SVG Version: 6.00 Build 0)  -->
<svg version="1.1" id="Layer_1" xmlns="http://www.w3.org/2000/svg" xmlns:xlink="http://www.w3.org/1999/xlink" x="0px" y="0px"
	 viewBox="0 0 513 561" style="enable-background:new 0 0 513 561;" xml:space="preserve">
<style type="text/css">
	.st0{fill:none;stroke:#FFFFFF;stroke-width:0.5;stroke-miterlimit:10;}
</style>
<polyline class="st0" points="135.9,144.9 143.5,137.4 151,144.9 143.5,152.5 135.9,144.9 "/>
<polyline class="st0" points="135.9,144.9 143.5,137.4 151,144.9 143.5,152.5 135.9,144.9 "/>
<path class="st0" d="M165.9,129.9l-0.1-0.3l-0.2-0.2l-0.2-0.2l-0.3-0.1l-0.3,0.1l-0.2,0.2l-0.2,0.2l-0.1,0.3l0.1,0.3l0.2,0.2
	l0.2,0.2l0.3,0.1l0.3-0.1l0.2-0.2l0.2-0.2L165.9,129.9 M170.1,125l-0.1-0.3l-0.2-0.2l-0.2-0.2l-0.3-0.1l-0.3,0.1l-0.2,0.2l-0.2,0.2
	l-0.1,0.3l0.1,0.3l0.2,0.2l0.2,0.2l0.3,0.1l0.3-0.1l0.2-0.2l0.2-0.2L170.1,125 M151,144.9l-7.6-7.6l64.8-64.8l7.6,7.6l7.6-7.6
	l-7.6-7.6L247.9,33l1.4,17.8l-1.4,1.4l-26.5,26.5l-7.6,7.6l-38.4,38.4l-1-1l-12.6,14.6l-77.1,77.1v-19.2l51.2-51.2l7.6,7.6
	L151,144.9"/>
<path class="st0" d="M165.9,129.9l-0.1-0.3l-0.2-0.2l-0.2-0.2l-0.3-0.1l-0.3,0.1l-0.2,0.2l-0.2,0.2l-0.1,0.3l0.1,0.3l0.2,0.2
	l0.2,0.2l0.3,0.1l0.3-0.1l0.2-0.2l0.2-0.2L165.9,129.9 M170.1,125l-0.1-0.3l-0.2-0.2l-0.2-0.2l-0.3-0.1l-0.3,0.1l-0.2,0.2l-0.2,0.2
	l-0.1,0.3l0.1,0.3l0.2,0.2l0.2,0.2l0.3,0.1l0.3-0.1l0.2-0.2l0.2-0.2L170.1,125 M151,144.9l-7.6-7.6l64.8-64.8l7.6,7.6l7.6-7.6
	l-7.6-7.6L247.9,33l1.4,17.8l-1.4,1.4l-26.5,26.5l-7.6,7.6l-38.4,38.4l-1-1l-12.6,14.6l-77.1,77.1v-19.2l51.2-51.2l7.6,7.6
	L151,144.9"/>
<polyline class="st0" points="365.8,137.4 373.4,144.9 365.8,152.5 358.3,144.9 365.8,137.4 "/>
<polyline class="st0" points="365.8,137.4 373.4,144.9 365.8,152.5 358.3,144.9 365.8,137.4 "/>
<path class="st0" d="M344.8,129.9l-0.1-0.3l-0.2-0.2l-0.2-0.2l-0.3-0.1l-0.3,0.1l-0.2,0.2l-0.2,0.2l-0.1,0.3l0.1,0.3l0.2,0.2
	l0.2,0.2l0.3,0.1l0.3-0.1l0.2-0.2l0.2-0.2L344.8,129.9 M340.6,125l-0.1-0.3l-0.2-0.2l-0.2-0.2l-0.3-0.1l-0.3,0.1l-0.2,0.2l-0.2,0.2
	l-0.1,0.3l0.1,0.3l0.2,0.2l0.2,0.2l0.3,0.1l0.3-0.1l0.2-0.2l0.2-0.2L340.6,125 M365.8,137.4l-7.6,7.6l7.6,7.6l7.6-7.6l51.2,51.2
	v19.2l-77.1-77.1l-12.6-14.6l-1,1l-38.4-38.4l-7.6-7.6l-26.5-26.5l-1.4-1.4l1.4-17.8L293.5,65l-7.6,7.6l7.6,7.6l7.6-7.6L365.8,137.4
	"/>
<path class="st0" d="M344.8,129.9l-0.1-0.3l-0.2-0.2l-0.2-0.2l-0.3-0.1l-0.3,0.1l-0.2,0.2l-0.2,0.2l-0.1,0.3l0.1,0.3l0.2,0.2
	l0.2,0.2l0.3,0.1l0.3-0.1l0.2-0.2l0.2-0.2L344.8,129.9 M340.6,125l-0.1-0.3l-0.2-0.2l-0.2-0.2l-0.3-0.1l-0.3,0.1l-0.2,0.2l-0.2,0.2
	l-0.1,0.3l0.1,0.3l0.2,0.2l0.2,0.2l0.3,0.1l0.3-0.1l0.2-0.2l0.2-0.2L340.6,125 M365.8,137.4l-7.6,7.6l7.6,7.6l7.6-7.6l51.2,51.2
	v19.2l-77.1-77.1l-12.6-14.6l-1,1l-38.4-38.4l-7.6-7.6l-26.5-26.5l-1.4-1.4l1.4-17.8L293.5,65l-7.6,7.6l7.6,7.6l7.6-7.6L365.8,137.4
	"/>
<polyline class="st0" points="208.2,72.6 215.8,65 223.4,72.6 215.8,80.2 208.2,72.6 "/>
<polyline class="st0" points="208.2,72.6 215.8,65 223.4,72.6 215.8,80.2 208.2,72.6 "/>
<polyline class="st0" points="293.5,65 301.1,72.6 293.5,80.2 285.9,72.6 293.5,65 "/>
<polyline class="st0" points="293.5,65 301.1,72.6 293.5,80.2 285.9,72.6 293.5,65 "/>
<path class="st0" d="M81.8,308.6l-0.1-0.3l-0.2-0.2l-0.2-0.2l-0.3-0.1l-0.3,0.1l-0.2,0.2l-0.2,0.2l-0.1,0.3l0.1,0.3l0.2,0.2l0.2,0.2
	l0.3,0.1l0.3-0.1l0.2-0.2l0.2-0.2L81.8,308.6 M81.1,205.3l-0.1-0.3l-0.2-0.2l-0.2-0.2l-0.3-0.1l-0.3,0.1l-0.2,0.2l-0.2,0.2l-0.1,0.3
	l0.1,0.3l0.2,0.2l0.2,0.2l0.3,0.1l0.3-0.1l0.2-0.2l0.2-0.2L81.1,205.3 M81.1,211l-0.1-0.3l-0.2-0.2l-0.2-0.2l-0.3-0.1l-0.3,0.1
	l-0.2,0.2l-0.2,0.2l-0.1,0.3l0.1,0.3l0.2,0.2l0.2,0.2l0.3,0.1l0.3-0.1l0.2-0.2l0.2-0.2L81.1,211 M84.7,541H71.1V209.7l13.6-13.6
	l-2.1,19.2h2.1v16.5h-1.4l1.4,13.6v50v15.7V541"/>
<path class="st0" d="M81.8,308.6l-0.1-0.3l-0.2-0.2l-0.2-0.2l-0.3-0.1l-0.3,0.1l-0.2,0.2l-0.2,0.2l-0.1,0.3l0.1,0.3l0.2,0.2l0.2,0.2
	l0.3,0.1l0.3-0.1l0.2-0.2l0.2-0.2L81.8,308.6 M81.1,205.3l-0.1-0.3l-0.2-0.2l-0.2-0.2l-0.3-0.1l-0.3,0.1l-0.2,0.2l-0.2,0.2l-0.1,0.3
	l0.1,0.3l0.2,0.2l0.2,0.2l0.3,0.1l0.3-0.1l0.2-0.2l0.2-0.2L81.1,205.3 M81.1,211l-0.1-0.3l-0.2-0.2l-0.2-0.2l-0.3-0.1l-0.3,0.1
	l-0.2,0.2l-0.2,0.2l-0.1,0.3l0.1,0.3l0.2,0.2l0.2,0.2l0.3,0.1l0.3-0.1l0.2-0.2l0.2-0.2L81.1,211 M84.7,541H71.1V209.7l13.6-13.6
	l-2.1,19.2h2.1v16.5h-1.4l1.4,13.6v50v15.7V541"/>
<path class="st0" d="M148.6,241.8l-0.1-0.3l-0.2-0.2l-0.2-0.2l-0.3-0.1l-0.3,0.1l-0.2,0.2l-0.2,0.2l-0.1,0.3l0.1,0.3l0.2,0.2
	l0.2,0.2l0.3,0.1l0.3-0.1l0.2-0.2l0.2-0.2L148.6,241.8 M83.3,231.8h1.4h78.5l-1.4,13.6v0h-11.4h-15.7h-50L83.3,231.8"/>
<path class="st0" d="M148.6,241.8l-0.1-0.3l-0.2-0.2l-0.2-0.2l-0.3-0.1l-0.3,0.1l-0.2,0.2l-0.2,0.2l-0.1,0.3l0.1,0.3l0.2,0.2
	l0.2,0.2l0.3,0.1l0.3-0.1l0.2-0.2l0.2-0.2L148.6,241.8 M83.3,231.8h1.4h78.5l-1.4,13.6v0h-11.4h-15.7h-50L83.3,231.8"/>
<path class="st0" d="M428.9,308.6l-0.1-0.3l-0.2-0.2l-0.2-0.2l-0.3-0.1l-0.3,0.1l-0.2,0.2l-0.2,0.2l-0.1,0.3l0.1,0.3l0.2,0.2
	l0.2,0.2l0.3,0.1l0.3-0.1l0.2-0.2l0.2-0.2L428.9,308.6 M429.6,205.3l-0.1-0.3l-0.2-0.2l-0.2-0.2l-0.3-0.1l-0.3,0.1l-0.2,0.2
	l-0.2,0.2l-0.1,0.3l0.1,0.3l0.2,0.2l0.2,0.2l0.3,0.1l0.3-0.1l0.2-0.2l0.2-0.2L429.6,205.3 M429.6,211l-0.1-0.3l-0.2-0.2l-0.2-0.2
	l-0.3-0.1l-0.3,0.1l-0.2,0.2l-0.2,0.2l-0.1,0.3l0.1,0.3l0.2,0.2l0.2,0.2l0.3,0.1l0.3-0.1l0.2-0.2l0.2-0.2L429.6,211 M438.2,541
	h-13.6V311.1v-15.7v-50l1.4-13.6h-1.4v-16.5h2.1l-2.1-19.2l13.6,13.6V541"/>
<path class="st0" d="M428.9,308.6l-0.1-0.3l-0.2-0.2l-0.2-0.2l-0.3-0.1l-0.3,0.1l-0.2,0.2l-0.2,0.2l-0.1,0.3l0.1,0.3l0.2,0.2
	l0.2,0.2l0.3,0.1l0.3-0.1l0.2-0.2l0.2-0.2L428.9,308.6 M429.6,205.3l-0.1-0.3l-0.2-0.2l-0.2-0.2l-0.3-0.1l-0.3,0.1l-0.2,0.2
	l-0.2,0.2l-0.1,0.3l0.1,0.3l0.2,0.2l0.2,0.2l0.3,0.1l0.3-0.1l0.2-0.2l0.2-0.2L429.6,205.3 M429.6,211l-0.1-0.3l-0.2-0.2l-0.2-0.2
	l-0.3-0.1l-0.3,0.1l-0.2,0.2l-0.2,0.2l-0.1,0.3l0.1,0.3l0.2,0.2l0.2,0.2l0.3,0.1l0.3-0.1l0.2-0.2l0.2-0.2L429.6,211 M438.2,541
	h-13.6V311.1v-15.7v-50l1.4-13.6h-1.4v-16.5h2.1l-2.1-19.2l13.6,13.6V541"/>
<path class="st0" d="M362.1,241.8l-0.1-0.3l-0.2-0.2l-0.2-0.2l-0.3-0.1l-0.3,0.1l-0.2,0.2l-0.2,0.2l-0.1,0.3l0.1,0.3l0.2,0.2
	l0.2,0.2l0.3,0.1l0.3-0.1l0.2-0.2l0.2-0.2L362.1,241.8 M424.6,231.8h1.4l-1.4,13.6h-50h-15.7h-11.4v0l-1.4-13.6H424.6"/>
<path class="st0" d="M362.1,241.8l-0.1-0.3l-0.2-0.2l-0.2-0.2l-0.3-0.1l-0.3,0.1l-0.2,0.2l-0.2,0.2l-0.1,0.3l0.1,0.3l0.2,0.2
	l0.2,0.2l0.3,0.1l0.3-0.1l0.2-0.2l0.2-0.2L362.1,241.8 M424.6,231.8h1.4l-1.4,13.6h-50h-15.7h-11.4v0l-1.4-13.6H424.6"/>
<path class="st0" d="M251.4,43.7l-0.1-0.3l-0.2-0.2l-0.2-0.2l-0.3-0.1l-0.3,0.1l-0.2,0.2l-0.2,0.2l-0.1,0.3l0.1,0.3l0.2,0.2l0.2,0.2
	l0.3,0.1l0.3-0.1l0.2-0.2l0.2-0.2L251.4,43.7 M259.3,43.7l-0.1-0.3l-0.2-0.2l-0.2-0.2l-0.3-0.1l-0.3,0.1l-0.2,0.2l-0.2,0.2l-0.1,0.3
	l0.1,0.3l0.2,0.2l0.2,0.2l0.3,0.1l0.3-0.1l0.2-0.2l0.2-0.2L259.3,43.7 M261.4,33L260,50.7l1.4,1.4v53v15.1v7.1h-13.6v-7.1v-15.1v-53
	l1.4-1.4L247.9,33l1.4-1.4v11.1H260V31.5L261.4,33"/>
<path class="st0" d="M251.4,43.7l-0.1-0.3l-0.2-0.2l-0.2-0.2l-0.3-0.1l-0.3,0.1l-0.2,0.2l-0.2,0.2l-0.1,0.3l0.1,0.3l0.2,0.2l0.2,0.2
	l0.3,0.1l0.3-0.1l0.2-0.2l0.2-0.2L251.4,43.7 M259.3,43.7l-0.1-0.3l-0.2-0.2l-0.2-0.2l-0.3-0.1l-0.3,0.1l-0.2,0.2l-0.2,0.2l-0.1,0.3
	l0.1,0.3l0.2,0.2l0.2,0.2l0.3,0.1l0.3-0.1l0.2-0.2l0.2-0.2L259.3,43.7 M261.4,33L260,50.7l1.4,1.4v53v15.1v7.1h-13.6v-7.1v-15.1v-53
	l1.4-1.4L247.9,33l1.4-1.4v11.1H260V31.5L261.4,33"/>
<polyline class="st0" points="426.7,215.3 424.6,215.3 424.6,196.1 426.7,215.3 "/>
<polyline class="st0" points="426.7,215.3 424.6,215.3 424.6,196.1 426.7,215.3 "/>
<polyline class="st0" points="84.7,215.3 82.6,215.3 84.7,196.1 84.7,215.3 "/>
<polyline class="st0" points="84.7,215.3 82.6,215.3 84.7,196.1 84.7,215.3 "/>
<polyline class="st0" points="175.4,266.8 168.6,275.4 170.9,266.8 175.4,266.8 "/>
<polyline class="st0" points="175.4,266.8 168.6,275.4 170.9,266.8 175.4,266.8 "/>
<polyline class="st0" points="168.6,275.4 161.8,266.8 166.3,266.8 168.6,275.4 "/>
<polyline class="st0" points="168.6,275.4 161.8,266.8 166.3,266.8 168.6,275.4 "/>
<polyline class="st0" points="168.6,275.4 166.3,266.8 170.9,266.8 168.6,275.4 "/>
<polyline class="st0" points="168.6,275.4 166.3,266.8 170.9,266.8 168.6,275.4 "/>
<polyline class="st0" points="175.4,266.8 170.9,266.8 170.9,264 175.4,264 175.4,266.8 "/>
<polyline class="st0" points="175.4,266.8 170.9,266.8 170.9,264 175.4,264 175.4,266.8 "/>
<polyline class="st0" points="166.3,266.8 161.8,266.8 161.8,264 166.3,264 166.3,266.8 "/>
<polyline class="st0" points="166.3,266.8 161.8,266.8 161.8,264 166.3,264 166.3,266.8 "/>
<polyline class="st0" points="170.9,264 170.9,266.8 166.3,266.8 166.3,264 170.9,264 "/>
<polyline class="st0" points="170.9,264 170.9,266.8 166.3,266.8 166.3,264 170.9,264 "/>
<polyline class="st0" points="161.8,262.6 161.8,259.7 166.3,259.7 166.3,262.6 161.8,262.6 "/>
<polyline class="st0" points="161.8,262.6 161.8,259.7 166.3,259.7 166.3,262.6 161.8,262.6 "/>
<polyline class="st0" points="166.3,259.7 161.8,259.7 161.8,256.8 166.3,259.7 "/>
<polyline class="st0" points="166.3,259.7 161.8,259.7 161.8,256.8 166.3,259.7 "/>
<path class="st0" d="M172.5,204.3l-0.1-0.3l-0.2-0.2l-0.2-0.2l-0.3-0.1l-0.3,0.1l-0.2,0.2l-0.2,0.2l-0.1,0.3l0.1,0.3l0.2,0.2
	l0.2,0.2l0.3,0.1l0.3-0.1l0.2-0.2l0.2-0.2L172.5,204.3 M166.3,262.6v-2.9l-4.5-2.9v-11.4v0l1.4-13.6v0h-1.4v-93.6l13.6-13.6v2.9
	l-1.4,13.6h1.4v50v15.7v28.7v0v0.1v0.1v0.1v0.1v0.1v0.1v0.1v0.1v0.1v0v0v20.3l-4.5,2.9v2.9H166.3"/>
<path class="st0" d="M172.5,204.3l-0.1-0.3l-0.2-0.2l-0.2-0.2l-0.3-0.1l-0.3,0.1l-0.2,0.2l-0.2,0.2l-0.1,0.3l0.1,0.3l0.2,0.2
	l0.2,0.2l0.3,0.1l0.3-0.1l0.2-0.2l0.2-0.2L172.5,204.3 M166.3,262.6v-2.9l-4.5-2.9v-11.4v0l1.4-13.6v0h-1.4v-93.6l13.6-13.6v2.9
	l-1.4,13.6h1.4v50v15.7v28.7v0v0.1v0.1v0.1v0.1v0.1v0.1v0.1v0.1v0.1v0v0v20.3l-4.5,2.9v2.9H166.3"/>
<polyline class="st0" points="175.4,206.8 175.4,191 225.4,141.1 241.1,141.1 234.4,145.7 227.9,150.6 221.5,155.6 215.3,160.9 
	209.3,166.3 203.4,172 198.3,177.4 193.3,183 188.6,188.7 184,194.6 179.6,200.6 175.4,206.8 "/>
<polyline class="st0" points="175.4,206.8 175.4,191 225.4,141.1 241.1,141.1 234.4,145.7 227.9,150.6 221.5,155.6 215.3,160.9 
	209.3,166.3 203.4,172 198.3,177.4 193.3,183 188.6,188.7 184,194.6 179.6,200.6 175.4,206.8 "/>
<polyline class="st0" points="241.1,141.1 225.4,141.1 225.4,141.1 241.1,141.1 241.1,141.1 "/>
<polyline class="st0" points="241.1,141.1 225.4,141.1 225.4,141.1 241.1,141.1 241.1,141.1 "/>
<polyline class="st0" points="175.4,259.7 175.4,262.6 170.9,262.6 170.9,259.7 175.4,259.7 "/>
<polyline class="st0" points="175.4,259.7 175.4,262.6 170.9,262.6 170.9,259.7 175.4,259.7 "/>
<polyline class="st0" points="175.4,259.7 170.9,259.7 175.4,256.8 175.4,259.7 "/>
<polyline class="st0" points="175.4,259.7 170.9,259.7 175.4,256.8 175.4,259.7 "/>
<polyline class="st0" points="166.3,262.6 170.9,262.6 170,263.3 167.2,263.3 166.3,262.6 "/>
<polyline class="st0" points="166.3,262.6 170.9,262.6 170,263.3 167.2,263.3 166.3,262.6 "/>
<polyline class="st0" points="166.3,262.6 167.2,263.3 163.1,263.3 161.8,262.6 166.3,262.6 "/>
<polyline class="st0" points="166.3,262.6 167.2,263.3 163.1,263.3 161.8,262.6 166.3,262.6 "/>
<polyline class="st0" points="163.1,263.3 167.2,263.3 166.3,264 161.8,264 163.1,263.3 "/>
<polyline class="st0" points="163.1,263.3 167.2,263.3 166.3,264 161.8,264 163.1,263.3 "/>
<polyline class="st0" points="166.3,264 167.2,263.3 170,263.3 170.9,264 166.3,264 "/>
<polyline class="st0" points="166.3,264 167.2,263.3 170,263.3 170.9,264 166.3,264 "/>
<polyline class="st0" points="175.4,262.6 174.1,263.3 170,263.3 170.9,262.6 175.4,262.6 "/>
<polyline class="st0" points="175.4,262.6 174.1,263.3 170,263.3 170.9,262.6 175.4,262.6 "/>
<polyline class="st0" points="174.1,263.3 175.4,264 170.9,264 170,263.3 174.1,263.3 "/>
<polyline class="st0" points="174.1,263.3 175.4,264 170.9,264 170,263.3 174.1,263.3 "/>
<polyline class="st0" points="175.4,124.6 161.8,138.2 174.4,123.6 175.4,124.6 "/>
<polyline class="st0" points="175.4,124.6 161.8,138.2 174.4,123.6 175.4,124.6 "/>
<polyline class="st0" points="347.5,266.8 340.7,275.4 343,266.8 347.5,266.8 "/>
<polyline class="st0" points="347.5,266.8 340.7,275.4 343,266.8 347.5,266.8 "/>
<polyline class="st0" points="343,266.8 340.7,275.4 338.4,266.8 343,266.8 "/>
<polyline class="st0" points="343,266.8 340.7,275.4 338.4,266.8 343,266.8 "/>
<polyline class="st0" points="338.4,266.8 340.7,275.4 333.9,266.8 338.4,266.8 "/>
<polyline class="st0" points="338.4,266.8 340.7,275.4 333.9,266.8 338.4,266.8 "/>
<polyline class="st0" points="338.4,266.8 333.9,266.8 333.9,264 338.4,264 338.4,266.8 "/>
<polyline class="st0" points="338.4,266.8 333.9,266.8 333.9,264 338.4,264 338.4,266.8 "/>
<polyline class="st0" points="347.5,266.8 343,266.8 343,264 347.5,264 347.5,266.8 "/>
<polyline class="st0" points="347.5,266.8 343,266.8 343,264 347.5,264 347.5,266.8 "/>
<polyline class="st0" points="338.4,266.8 338.4,264 343,264 343,266.8 338.4,266.8 "/>
<polyline class="st0" points="338.4,266.8 338.4,264 343,264 343,266.8 338.4,266.8 "/>
<polyline class="st0" points="347.5,259.7 347.5,262.6 343,262.6 343,259.7 347.5,259.7 "/>
<polyline class="st0" points="347.5,259.7 347.5,262.6 343,262.6 343,259.7 347.5,259.7 "/>
<polyline class="st0" points="347.5,259.7 343,259.7 347.5,256.8 347.5,259.7 "/>
<polyline class="st0" points="347.5,259.7 343,259.7 347.5,256.8 347.5,259.7 "/>
<path class="st0" d="M338.2,204.3l-0.1-0.3l-0.2-0.2l-0.2-0.2l-0.3-0.1l-0.3,0.1l-0.2,0.2l-0.2,0.2l-0.1,0.3l0.1,0.3l0.2,0.2
	l0.2,0.2l0.3,0.1l0.3-0.1l0.2-0.2l0.2-0.2L338.2,204.3 M343,259.7v2.9h-4.5v-2.9l-4.5-2.9v-20.3v0v0v-0.1v-0.1v-0.1v-0.1v-0.1v-0.1
	v-0.1v-0.1v-0.1v0v-28.7V191v-50h1.4l-1.4-13.6v-2.9l13.6,13.6v93.6h-1.4v0l1.4,13.6v0v11.4L343,259.7"/>
<path class="st0" d="M338.2,204.3l-0.1-0.3l-0.2-0.2l-0.2-0.2l-0.3-0.1l-0.3,0.1l-0.2,0.2l-0.2,0.2l-0.1,0.3l0.1,0.3l0.2,0.2
	l0.2,0.2l0.3,0.1l0.3-0.1l0.2-0.2l0.2-0.2L338.2,204.3 M343,259.7v2.9h-4.5v-2.9l-4.5-2.9v-20.3v0v0v-0.1v-0.1v-0.1v-0.1v-0.1v-0.1
	v-0.1v-0.1v-0.1v0v-28.7V191v-50h1.4l-1.4-13.6v-2.9l13.6,13.6v93.6h-1.4v0l1.4,13.6v0v11.4L343,259.7"/>
<polyline class="st0" points="333.9,262.6 333.9,259.7 338.4,259.7 338.4,262.6 333.9,262.6 "/>
<polyline class="st0" points="333.9,262.6 333.9,259.7 338.4,259.7 338.4,262.6 333.9,262.6 "/>
<polyline class="st0" points="338.4,259.7 333.9,259.7 333.9,256.8 338.4,259.7 "/>
<polyline class="st0" points="338.4,259.7 333.9,259.7 333.9,256.8 338.4,259.7 "/>
<polyline class="st0" points="338.4,262.6 343,262.6 342.1,263.3 339.3,263.3 338.4,262.6 "/>
<polyline class="st0" points="338.4,262.6 343,262.6 342.1,263.3 339.3,263.3 338.4,262.6 "/>
<polyline class="st0" points="342.1,263.3 343,262.6 347.5,262.6 346.2,263.3 342.1,263.3 "/>
<polyline class="st0" points="342.1,263.3 343,262.6 347.5,262.6 346.2,263.3 342.1,263.3 "/>
<polyline class="st0" points="342.1,263.3 346.2,263.3 347.5,264 343,264 342.1,263.3 "/>
<polyline class="st0" points="342.1,263.3 346.2,263.3 347.5,264 343,264 342.1,263.3 "/>
<polyline class="st0" points="342.1,263.3 343,264 338.4,264 339.3,263.3 342.1,263.3 "/>
<polyline class="st0" points="342.1,263.3 343,264 338.4,264 339.3,263.3 342.1,263.3 "/>
<polyline class="st0" points="335.2,263.3 333.9,262.6 338.4,262.6 339.3,263.3 335.2,263.3 "/>
<polyline class="st0" points="335.2,263.3 333.9,262.6 338.4,262.6 339.3,263.3 335.2,263.3 "/>
<polyline class="st0" points="333.9,264 335.2,263.3 339.3,263.3 338.4,264 333.9,264 "/>
<polyline class="st0" points="333.9,264 335.2,263.3 339.3,263.3 338.4,264 333.9,264 "/>
<polyline class="st0" points="347.5,138.2 333.9,124.6 334.9,123.6 347.5,138.2 "/>
<polyline class="st0" points="347.5,138.2 333.9,124.6 334.9,123.6 347.5,138.2 "/>
<path class="st0" d="M251.4,39.5l-0.1-0.3l-0.2-0.2l-0.2-0.2l-0.3-0.1l-0.3,0.1l-0.2,0.2l-0.2,0.2l-0.1,0.3l0.1,0.3l0.2,0.2l0.2,0.2
	l0.3,0.1l0.3-0.1l0.2-0.2l0.2-0.2L251.4,39.5 M259.3,39.5l-0.1-0.3l-0.2-0.2l-0.2-0.2l-0.3-0.1l-0.3,0.1l-0.2,0.2l-0.2,0.2l-0.1,0.3
	l0.1,0.3l0.2,0.2l0.2,0.2l0.3,0.1l0.3-0.1l0.2-0.2l0.2-0.2L259.3,39.5 M257.5,29l2.5,2.5v11.1h-10.7V31.5l2.5-2.5H257.5"/>
<path class="st0" d="M251.4,39.5l-0.1-0.3l-0.2-0.2l-0.2-0.2l-0.3-0.1l-0.3,0.1l-0.2,0.2l-0.2,0.2l-0.1,0.3l0.1,0.3l0.2,0.2l0.2,0.2
	l0.3,0.1l0.3-0.1l0.2-0.2l0.2-0.2L251.4,39.5 M259.3,39.5l-0.1-0.3l-0.2-0.2l-0.2-0.2l-0.3-0.1l-0.3,0.1l-0.2,0.2l-0.2,0.2l-0.1,0.3
	l0.1,0.3l0.2,0.2l0.2,0.2l0.3,0.1l0.3-0.1l0.2-0.2l0.2-0.2L259.3,39.5 M257.5,29l2.5,2.5v11.1h-10.7V31.5l2.5-2.5H257.5"/>
<polyline class="st0" points="257.5,29 251.8,29 254.7,26.2 257.5,29 "/>
<polyline class="st0" points="257.5,29 251.8,29 254.7,26.2 257.5,29 "/>
<polyline class="st0" points="274.9,145.7 268.2,141.1 283.9,141.1 333.9,191 333.9,206.8 329.7,200.6 325.3,194.6 320.7,188.7 
	316,183 311,177.4 305.9,172 300,166.3 294,160.9 287.8,155.6 281.4,150.6 274.9,145.7 "/>
<polyline class="st0" points="274.9,145.7 268.2,141.1 283.9,141.1 333.9,191 333.9,206.8 329.7,200.6 325.3,194.6 320.7,188.7 
	316,183 311,177.4 305.9,172 300,166.3 294,160.9 287.8,155.6 281.4,150.6 274.9,145.7 "/>
<polyline class="st0" points="283.9,141.1 268.2,141.1 268.2,141.1 283.9,141.1 283.9,141.1 "/>
<polyline class="st0" points="283.9,141.1 268.2,141.1 268.2,141.1 283.9,141.1 283.9,141.1 "/>
<polyline class="st0" points="374.6,245.4 424.6,295.4 424.6,311.1 420.4,304.9 416,298.9 411.4,293 406.6,287.3 401.7,281.7 
	396.5,276.3 390.7,270.7 384.7,265.2 378.5,260 372.1,254.9 365.6,250 358.9,245.4 374.6,245.4 "/>
<polyline class="st0" points="374.6,245.4 424.6,295.4 424.6,311.1 420.4,304.9 416,298.9 411.4,293 406.6,287.3 401.7,281.7 
	396.5,276.3 390.7,270.7 384.7,265.2 378.5,260 372.1,254.9 365.6,250 358.9,245.4 374.6,245.4 "/>
<polyline class="st0" points="84.7,295.4 134.7,245.4 150.4,245.4 143.7,250 137.2,254.9 130.8,260 124.6,265.2 118.6,270.7 
	112.8,276.3 107.6,281.7 102.7,287.3 97.9,293 93.3,298.9 88.9,304.9 84.7,311.1 84.7,295.4 "/>
<polyline class="st0" points="84.7,295.4 134.7,245.4 150.4,245.4 143.7,250 137.2,254.9 130.8,260 124.6,265.2 118.6,270.7 
	112.8,276.3 107.6,281.7 102.7,287.3 97.9,293 93.3,298.9 88.9,304.9 84.7,311.1 84.7,295.4 "/>
<path class="st0" d="M271.4,137.5l-0.1-0.3l-0.2-0.2l-0.2-0.2l-0.3-0.1l-0.3,0.1l-0.2,0.2l-0.2,0.2l-0.1,0.3l0.1,0.3l0.2,0.2
	l0.2,0.2l0.3,0.1l0.3-0.1l0.2-0.2l0.2-0.2L271.4,137.5 M239.3,137.5l-0.1-0.3l-0.2-0.2l-0.2-0.2l-0.3-0.1l-0.3,0.1l-0.2,0.2
	l-0.2,0.2l-0.1,0.3l0.1,0.3l0.2,0.2l0.2,0.2l0.3,0.1l0.3-0.1l0.2-0.2l0.2-0.2L239.3,137.5 M250.8,131.5l-0.1,0.3l0.1,0.3l0.2,0.2
	l0.2,0.2l0.3,0.1l0.3-0.1l0.2-0.2l0.2-0.2l0.1-0.3l-0.1-0.3l-0.2-0.2l-0.2-0.2l-0.3-0.1l-0.3,0.1l-0.2,0.2L250.8,131.5 M254,134.4
	l-0.1,0.3l0.1,0.3l0.2,0.2l0.2,0.2l0.3,0.1l0.3-0.1l0.2-0.2l0.2-0.2l0.1-0.3l-0.1-0.3l-0.2-0.2l-0.2-0.2l-0.3-0.1l-0.3,0.1l-0.2,0.2
	L254,134.4 M257.2,131.5l-0.1,0.3l0.1,0.3l0.2,0.2l0.2,0.2l0.3,0.1l0.3-0.1l0.2-0.2l0.2-0.2l0.1-0.3l-0.1-0.3l-0.2-0.2l-0.2-0.2
	l-0.3-0.1l-0.3,0.1l-0.2,0.2L257.2,131.5 M247.9,127.5h13.6h72.5v13.6h-50h-15.7h-7.5h-12.1h-7.5h-15.7h-50v-13.6H247.9"/>
<path class="st0" d="M271.4,137.5l-0.1-0.3l-0.2-0.2l-0.2-0.2l-0.3-0.1l-0.3,0.1l-0.2,0.2l-0.2,0.2l-0.1,0.3l0.1,0.3l0.2,0.2
	l0.2,0.2l0.3,0.1l0.3-0.1l0.2-0.2l0.2-0.2L271.4,137.5 M239.3,137.5l-0.1-0.3l-0.2-0.2l-0.2-0.2l-0.3-0.1l-0.3,0.1l-0.2,0.2
	l-0.2,0.2l-0.1,0.3l0.1,0.3l0.2,0.2l0.2,0.2l0.3,0.1l0.3-0.1l0.2-0.2l0.2-0.2L239.3,137.5 M250.8,131.5l-0.1,0.3l0.1,0.3l0.2,0.2
	l0.2,0.2l0.3,0.1l0.3-0.1l0.2-0.2l0.2-0.2l0.1-0.3l-0.1-0.3l-0.2-0.2l-0.2-0.2l-0.3-0.1l-0.3,0.1l-0.2,0.2L250.8,131.5 M254,134.4
	l-0.1,0.3l0.1,0.3l0.2,0.2l0.2,0.2l0.3,0.1l0.3-0.1l0.2-0.2l0.2-0.2l0.1-0.3l-0.1-0.3l-0.2-0.2l-0.2-0.2l-0.3-0.1l-0.3,0.1l-0.2,0.2
	L254,134.4 M257.2,131.5l-0.1,0.3l0.1,0.3l0.2,0.2l0.2,0.2l0.3,0.1l0.3-0.1l0.2-0.2l0.2-0.2l0.1-0.3l-0.1-0.3l-0.2-0.2l-0.2-0.2
	l-0.3-0.1l-0.3,0.1l-0.2,0.2L257.2,131.5 M247.9,127.5h13.6h72.5v13.6h-50h-15.7h-7.5h-12.1h-7.5h-15.7h-50v-13.6H247.9"/>
<polyline class="st0" points="258.6,148.7 250.7,148.7 248.6,146.6 248.6,141.1 260.7,141.1 260.7,146.6 258.6,148.7 "/>
<polyline class="st0" points="258.6,148.7 250.7,148.7 248.6,146.6 248.6,141.1 260.7,141.1 260.7,146.6 258.6,148.7 "/>
<polyline class="st0" points="333.9,141.1 333.9,127.5 335.3,141.1 333.9,141.1 "/>
<polyline class="st0" points="333.9,141.1 333.9,127.5 335.3,141.1 333.9,141.1 "/>
<polyline class="st0" points="175.4,127.5 175.4,141.1 174,141.1 175.4,127.5 "/>
<polyline class="st0" points="175.4,127.5 175.4,141.1 174,141.1 175.4,127.5 "/>
<polyline class="st0" points="261.4,105.2 288,78.7 295.5,86.3 291.9,88.2 288.4,90.3 285,92.6 281.8,95.1 278.7,97.7 275.7,100.5 
	272.9,103.5 270.2,106.6 267.8,109.9 265.5,113.2 263.4,116.7 261.4,120.4 261.4,105.2 "/>
<polyline class="st0" points="261.4,105.2 288,78.7 295.5,86.3 291.9,88.2 288.4,90.3 285,92.6 281.8,95.1 278.7,97.7 275.7,100.5 
	272.9,103.5 270.2,106.6 267.8,109.9 265.5,113.2 263.4,116.7 261.4,120.4 261.4,105.2 "/>
<polyline class="st0" points="247.9,120.4 245.9,116.7 243.8,113.2 241.5,109.9 239.1,106.6 236.4,103.5 233.6,100.5 230.6,97.7 
	227.5,95.1 224.3,92.6 220.9,90.3 217.4,88.2 213.8,86.3 221.3,78.7 247.9,105.2 247.9,120.4 "/>
<polyline class="st0" points="247.9,120.4 245.9,116.7 243.8,113.2 241.5,109.9 239.1,106.6 236.4,103.5 233.6,100.5 230.6,97.7 
	227.5,95.1 224.3,92.6 220.9,90.3 217.4,88.2 213.8,86.3 221.3,78.7 247.9,105.2 247.9,120.4 "/>
<polyline class="st0" points="259.2,39.2 259.3,39.5 259.2,39.7 259.1,40 258.9,40.1 258.6,40.2 258.3,40.1 258.1,40 257.9,39.7 
	257.9,39.5 257.9,39.2 258.1,39 258.3,38.8 258.6,38.7 258.9,38.8 259.1,39 259.2,39.2 "/>
<polyline class="st0" points="259.2,39.2 259.3,39.5 259.2,39.7 259.1,40 258.9,40.1 258.6,40.2 258.3,40.1 258.1,40 257.9,39.7 
	257.9,39.5 257.9,39.2 258.1,39 258.3,38.8 258.6,38.7 258.9,38.8 259.1,39 259.2,39.2 "/>
<polyline class="st0" points="259.2,43.5 259.3,43.7 259.2,44 259.1,44.2 258.9,44.4 258.6,44.5 258.3,44.4 258.1,44.2 257.9,44 
	257.9,43.7 257.9,43.5 258.1,43.2 258.3,43.1 258.6,43 258.9,43.1 259.1,43.2 259.2,43.5 "/>
<polyline class="st0" points="259.2,43.5 259.3,43.7 259.2,44 259.1,44.2 258.9,44.4 258.6,44.5 258.3,44.4 258.1,44.2 257.9,44 
	257.9,43.7 257.9,43.5 258.1,43.2 258.3,43.1 258.6,43 258.9,43.1 259.1,43.2 259.2,43.5 "/>
<polyline class="st0" points="429.6,210.8 429.6,211 429.6,211.3 429.4,211.5 429.2,211.7 428.9,211.8 428.6,211.7 428.4,211.5 
	428.2,211.3 428.2,211 428.2,210.8 428.4,210.5 428.6,210.4 428.9,210.3 429.2,210.4 429.4,210.5 429.6,210.8 "/>
<polyline class="st0" points="429.6,210.8 429.6,211 429.6,211.3 429.4,211.5 429.2,211.7 428.9,211.8 428.6,211.7 428.4,211.5 
	428.2,211.3 428.2,211 428.2,210.8 428.4,210.5 428.6,210.4 428.9,210.3 429.2,210.4 429.4,210.5 429.6,210.8 "/>
<polyline class="st0" points="429.6,205.1 429.6,205.3 429.6,205.6 429.4,205.8 429.2,206 428.9,206 428.6,206 428.4,205.8 
	428.2,205.6 428.2,205.3 428.2,205.1 428.4,204.8 428.6,204.7 428.9,204.6 429.2,204.7 429.4,204.8 429.6,205.1 "/>
<polyline class="st0" points="429.6,205.1 429.6,205.3 429.6,205.6 429.4,205.8 429.2,206 428.9,206 428.6,206 428.4,205.8 
	428.2,205.6 428.2,205.3 428.2,205.1 428.4,204.8 428.6,204.7 428.9,204.6 429.2,204.7 429.4,204.8 429.6,205.1 "/>
<polyline class="st0" points="251.4,39.2 251.4,39.5 251.4,39.7 251.2,40 251,40.1 250.7,40.2 250.5,40.1 250.2,40 250.1,39.7 
	250,39.5 250.1,39.2 250.2,39 250.5,38.8 250.7,38.7 251,38.8 251.2,39 251.4,39.2 "/>
<polyline class="st0" points="251.4,39.2 251.4,39.5 251.4,39.7 251.2,40 251,40.1 250.7,40.2 250.5,40.1 250.2,40 250.1,39.7 
	250,39.5 250.1,39.2 250.2,39 250.5,38.8 250.7,38.7 251,38.8 251.2,39 251.4,39.2 "/>
<polyline class="st0" points="251.4,43.5 251.4,43.7 251.4,44 251.2,44.2 251,44.4 250.7,44.5 250.5,44.4 250.2,44.2 250.1,44 
	250,43.7 250.1,43.5 250.2,43.2 250.5,43.1 250.7,43 251,43.1 251.2,43.2 251.4,43.5 "/>
<polyline class="st0" points="251.4,43.5 251.4,43.7 251.4,44 251.2,44.2 251,44.4 250.7,44.5 250.5,44.4 250.2,44.2 250.1,44 
	250,43.7 250.1,43.5 250.2,43.2 250.5,43.1 250.7,43 251,43.1 251.2,43.2 251.4,43.5 "/>
<polyline class="st0" points="81.1,210.8 81.1,211 81.1,211.3 80.9,211.5 80.7,211.7 80.4,211.8 80.1,211.7 79.9,211.5 79.8,211.3 
	79.7,211 79.8,210.8 79.9,210.5 80.1,210.4 80.4,210.3 80.7,210.4 80.9,210.5 81.1,210.8 "/>
<polyline class="st0" points="81.1,210.8 81.1,211 81.1,211.3 80.9,211.5 80.7,211.7 80.4,211.8 80.1,211.7 79.9,211.5 79.8,211.3 
	79.7,211 79.8,210.8 79.9,210.5 80.1,210.4 80.4,210.3 80.7,210.4 80.9,210.5 81.1,210.8 "/>
<polyline class="st0" points="81.1,205.1 81.1,205.3 81.1,205.6 80.9,205.8 80.7,206 80.4,206 80.1,206 79.9,205.8 79.8,205.6 
	79.7,205.3 79.8,205.1 79.9,204.8 80.1,204.7 80.4,204.6 80.7,204.7 80.9,204.8 81.1,205.1 "/>
<polyline class="st0" points="81.1,205.1 81.1,205.3 81.1,205.6 80.9,205.8 80.7,206 80.4,206 80.1,206 79.9,205.8 79.8,205.6 
	79.7,205.3 79.8,205.1 79.9,204.8 80.1,204.7 80.4,204.6 80.7,204.7 80.9,204.8 81.1,205.1 "/>
<polyline class="st0" points="170.1,124.7 170.1,125 170.1,125.3 169.9,125.5 169.7,125.7 169.4,125.7 169.1,125.7 168.9,125.5 
	168.8,125.3 168.7,125 168.8,124.7 168.9,124.5 169.1,124.4 169.4,124.3 169.7,124.4 169.9,124.5 170.1,124.7 "/>
<polyline class="st0" points="170.1,124.7 170.1,125 170.1,125.3 169.9,125.5 169.7,125.7 169.4,125.7 169.1,125.7 168.9,125.5 
	168.8,125.3 168.7,125 168.8,124.7 168.9,124.5 169.1,124.4 169.4,124.3 169.7,124.4 169.9,124.5 170.1,124.7 "/>
<polyline class="st0" points="165.9,129.6 165.9,129.9 165.9,130.2 165.7,130.4 165.5,130.5 165.2,130.6 165,130.5 164.7,130.4 
	164.6,130.2 164.5,129.9 164.6,129.6 164.7,129.4 165,129.2 165.2,129.2 165.5,129.2 165.7,129.4 165.9,129.6 "/>
<polyline class="st0" points="165.9,129.6 165.9,129.9 165.9,130.2 165.7,130.4 165.5,130.5 165.2,130.6 165,130.5 164.7,130.4 
	164.6,130.2 164.5,129.9 164.6,129.6 164.7,129.4 165,129.2 165.2,129.2 165.5,129.2 165.7,129.4 165.9,129.6 "/>
<polyline class="st0" points="340.5,124.7 340.6,125 340.5,125.3 340.4,125.5 340.2,125.7 339.9,125.7 339.6,125.7 339.4,125.5 
	339.2,125.3 339.2,125 339.2,124.7 339.4,124.5 339.6,124.4 339.9,124.3 340.2,124.4 340.4,124.5 340.5,124.7 "/>
<polyline class="st0" points="340.5,124.7 340.6,125 340.5,125.3 340.4,125.5 340.2,125.7 339.9,125.7 339.6,125.7 339.4,125.5 
	339.2,125.3 339.2,125 339.2,124.7 339.4,124.5 339.6,124.4 339.9,124.3 340.2,124.4 340.4,124.5 340.5,124.7 "/>
<polyline class="st0" points="344.7,129.6 344.8,129.9 344.7,130.2 344.6,130.4 344.4,130.5 344.1,130.6 343.8,130.5 343.6,130.4 
	343.4,130.2 343.4,129.9 343.4,129.6 343.6,129.4 343.8,129.2 344.1,129.2 344.4,129.2 344.6,129.4 344.7,129.6 "/>
<polyline class="st0" points="344.7,129.6 344.8,129.9 344.7,130.2 344.6,130.4 344.4,130.5 344.1,130.6 343.8,130.5 343.6,130.4 
	343.4,130.2 343.4,129.9 343.4,129.6 343.6,129.4 343.8,129.2 344.1,129.2 344.4,129.2 344.6,129.4 344.7,129.6 "/>
<polyline class="st0" points="257.2,131.8 257.2,131.5 257.4,131.3 257.6,131.1 257.9,131.1 258.1,131.1 258.4,131.3 258.5,131.5 
	258.6,131.8 258.5,132.1 258.4,132.3 258.1,132.4 257.9,132.5 257.6,132.4 257.4,132.3 257.2,132.1 257.2,131.8 "/>
<polyline class="st0" points="257.2,131.8 257.2,131.5 257.4,131.3 257.6,131.1 257.9,131.1 258.1,131.1 258.4,131.3 258.5,131.5 
	258.6,131.8 258.5,132.1 258.4,132.3 258.1,132.4 257.9,132.5 257.6,132.4 257.4,132.3 257.2,132.1 257.2,131.8 "/>
<polyline class="st0" points="253.9,134.6 254,134.4 254.1,134.1 254.4,134 254.7,133.9 254.9,134 255.2,134.1 255.3,134.4 
	255.4,134.6 255.3,134.9 255.2,135.1 254.9,135.3 254.7,135.4 254.4,135.3 254.1,135.1 254,134.9 253.9,134.6 "/>
<polyline class="st0" points="253.9,134.6 254,134.4 254.1,134.1 254.4,134 254.7,133.9 254.9,134 255.2,134.1 255.3,134.4 
	255.4,134.6 255.3,134.9 255.2,135.1 254.9,135.3 254.7,135.4 254.4,135.3 254.1,135.1 254,134.9 253.9,134.6 "/>
<polyline class="st0" points="250.7,131.8 250.8,131.5 250.9,131.3 251.2,131.1 251.4,131.1 251.7,131.1 251.9,131.3 252.1,131.5 
	252.2,131.8 252.1,132.1 251.9,132.3 251.7,132.4 251.4,132.5 251.2,132.4 250.9,132.3 250.8,132.1 250.7,131.8 "/>
<polyline class="st0" points="250.7,131.8 250.8,131.5 250.9,131.3 251.2,131.1 251.4,131.1 251.7,131.1 251.9,131.3 252.1,131.5 
	252.2,131.8 252.1,132.1 251.9,132.3 251.7,132.4 251.4,132.5 251.2,132.4 250.9,132.3 250.8,132.1 250.7,131.8 "/>
<polyline class="st0" points="172.5,204 172.5,204.3 172.5,204.6 172.3,204.8 172.1,204.9 171.8,205 171.5,204.9 171.3,204.8 
	171.2,204.6 171.1,204.3 171.2,204 171.3,203.8 171.5,203.6 171.8,203.6 172.1,203.6 172.3,203.8 172.5,204 "/>
<polyline class="st0" points="172.5,204 172.5,204.3 172.5,204.6 172.3,204.8 172.1,204.9 171.8,205 171.5,204.9 171.3,204.8 
	171.2,204.6 171.1,204.3 171.2,204 171.3,203.8 171.5,203.6 171.8,203.6 172.1,203.6 172.3,203.8 172.5,204 "/>
<polyline class="st0" points="239.3,137.2 239.3,137.5 239.3,137.8 239.1,138 238.9,138.2 238.6,138.2 238.3,138.2 238.1,138 
	237.9,137.8 237.9,137.5 237.9,137.2 238.1,137 238.3,136.8 238.6,136.8 238.9,136.8 239.1,137 239.3,137.2 "/>
<polyline class="st0" points="239.3,137.2 239.3,137.5 239.3,137.8 239.1,138 238.9,138.2 238.6,138.2 238.3,138.2 238.1,138 
	237.9,137.8 237.9,137.5 237.9,137.2 238.1,137 238.3,136.8 238.6,136.8 238.9,136.8 239.1,137 239.3,137.2 "/>
<polyline class="st0" points="338.1,204 338.2,204.3 338.1,204.6 338,204.8 337.8,204.9 337.5,205 337.2,204.9 337,204.8 
	336.8,204.6 336.8,204.3 336.8,204 337,203.8 337.2,203.6 337.5,203.6 337.8,203.6 338,203.8 338.1,204 "/>
<polyline class="st0" points="338.1,204 338.2,204.3 338.1,204.6 338,204.8 337.8,204.9 337.5,205 337.2,204.9 337,204.8 
	336.8,204.6 336.8,204.3 336.8,204 337,203.8 337.2,203.6 337.5,203.6 337.8,203.6 338,203.8 338.1,204 "/>
<polyline class="st0" points="271.4,137.2 271.4,137.5 271.4,137.8 271.2,138 271,138.2 270.7,138.2 270.4,138.2 270.2,138 
	270,137.8 270,137.5 270,137.2 270.2,137 270.4,136.8 270.7,136.8 271,136.8 271.2,137 271.4,137.2 "/>
<polyline class="st0" points="271.4,137.2 271.4,137.5 271.4,137.8 271.2,138 271,138.2 270.7,138.2 270.4,138.2 270.2,138 
	270,137.8 270,137.5 270,137.2 270.2,137 270.4,136.8 270.7,136.8 271,136.8 271.2,137 271.4,137.2 "/>
<polyline class="st0" points="428.8,308.4 428.9,308.6 428.8,308.9 428.7,309.1 428.5,309.3 428.2,309.3 427.9,309.3 427.7,309.1 
	427.5,308.9 427.5,308.6 427.5,308.4 427.7,308.1 427.9,308 428.2,307.9 428.5,308 428.7,308.1 428.8,308.4 "/>
<polyline class="st0" points="428.8,308.4 428.9,308.6 428.8,308.9 428.7,309.1 428.5,309.3 428.2,309.3 427.9,309.3 427.7,309.1 
	427.5,308.9 427.5,308.6 427.5,308.4 427.7,308.1 427.9,308 428.2,307.9 428.5,308 428.7,308.1 428.8,308.4 "/>
<polyline class="st0" points="362,241.6 362.1,241.8 362,242.1 361.9,242.3 361.7,242.5 361.4,242.6 361.1,242.5 360.9,242.3 
	360.7,242.1 360.7,241.8 360.7,241.6 360.9,241.3 361.1,241.2 361.4,241.1 361.7,241.2 361.9,241.3 362,241.6 "/>
<polyline class="st0" points="362,241.6 362.1,241.8 362,242.1 361.9,242.3 361.7,242.5 361.4,242.6 361.1,242.5 360.9,242.3 
	360.7,242.1 360.7,241.8 360.7,241.6 360.9,241.3 361.1,241.2 361.4,241.1 361.7,241.2 361.9,241.3 362,241.6 "/>
<polyline class="st0" points="81.8,308.4 81.8,308.6 81.8,308.9 81.6,309.1 81.4,309.3 81.1,309.3 80.9,309.3 80.6,309.1 
	80.5,308.9 80.4,308.6 80.5,308.4 80.6,308.1 80.9,308 81.1,307.9 81.4,308 81.6,308.1 81.8,308.4 "/>
<polyline class="st0" points="81.8,308.4 81.8,308.6 81.8,308.9 81.6,309.1 81.4,309.3 81.1,309.3 80.9,309.3 80.6,309.1 
	80.5,308.9 80.4,308.6 80.5,308.4 80.6,308.1 80.9,308 81.1,307.9 81.4,308 81.6,308.1 81.8,308.4 "/>
<polyline class="st0" points="148.6,241.6 148.6,241.8 148.6,242.1 148.4,242.3 148.2,242.5 147.9,242.6 147.6,242.5 147.4,242.3 
	147.3,242.1 147.2,241.8 147.3,241.6 147.4,241.3 147.6,241.2 147.9,241.1 148.2,241.2 148.4,241.3 148.6,241.6 "/>
<polyline class="st0" points="148.6,241.6 148.6,241.8 148.6,242.1 148.4,242.3 148.2,242.5 147.9,242.6 147.6,242.5 147.4,242.3 
	147.3,242.1 147.2,241.8 147.3,241.6 147.4,241.3 147.6,241.2 147.9,241.1 148.2,241.2 148.4,241.3 148.6,241.6 "/>
<line class="st0" x1="168.6" y1="275.4" x2="166.3" y2="266.8"/>
<polyline class="st0" points="168.6,275.4 170.9,266.8 175.4,266.8 "/>
<line class="st0" x1="166.3" y1="266.8" x2="161.8" y2="266.8"/>
<line class="st0" x1="166.3" y1="259.7" x2="161.8" y2="259.7"/>
<line class="st0" x1="170.9" y1="259.7" x2="175.4" y2="259.7"/>
<line class="st0" x1="170.9" y1="266.8" x2="170.9" y2="264"/>
<line class="st0" x1="166.3" y1="266.8" x2="170.9" y2="266.8"/>
<line class="st0" x1="166.3" y1="266.8" x2="166.3" y2="264"/>
<line class="st0" x1="166.3" y1="262.6" x2="166.3" y2="259.7"/>
<line class="st0" x1="170.9" y1="262.6" x2="170.9" y2="259.7"/>
<line class="st0" x1="170.9" y1="262.6" x2="166.3" y2="262.6"/>
<line class="st0" x1="167.2" y1="263.3" x2="166.3" y2="262.6"/>
<polyline class="st0" points="166.3,264 167.2,263.3 163.1,263.3 "/>
<line class="st0" x1="161.8" y1="262.6" x2="166.3" y2="262.6"/>
<line class="st0" x1="166.3" y1="264" x2="161.8" y2="264"/>
<polyline class="st0" points="174.1,263.3 170,263.3 170.9,262.6 175.4,262.6 "/>
<polyline class="st0" points="175.4,264 170.9,264 170,263.3 167.2,263.3 "/>
<line class="st0" x1="170.9" y1="264" x2="166.3" y2="264"/>
<line class="st0" x1="166.3" y1="259.7" x2="161.8" y2="256.8"/>
<line class="st0" x1="170.9" y1="259.7" x2="175.4" y2="256.8"/>
<line class="st0" x1="340.7" y1="275.4" x2="343" y2="266.8"/>
<line class="st0" x1="340.7" y1="275.4" x2="338.4" y2="266.8"/>
<line class="st0" x1="338.4" y1="266.8" x2="333.9" y2="266.8"/>
<line class="st0" x1="343" y1="266.8" x2="347.5" y2="266.8"/>
<line class="st0" x1="343" y1="259.7" x2="347.5" y2="259.7"/>
<line class="st0" x1="338.4" y1="259.7" x2="333.9" y2="259.7"/>
<line class="st0" x1="338.4" y1="266.8" x2="338.4" y2="264"/>
<line class="st0" x1="343" y1="266.8" x2="338.4" y2="266.8"/>
<line class="st0" x1="343" y1="266.8" x2="343" y2="264"/>
<line class="st0" x1="343" y1="262.6" x2="343" y2="259.7"/>
<line class="st0" x1="338.4" y1="262.6" x2="338.4" y2="259.7"/>
<line class="st0" x1="338.4" y1="262.6" x2="343" y2="262.6"/>
<line class="st0" x1="342.1" y1="263.3" x2="343" y2="262.6"/>
<polyline class="st0" points="343,264 342.1,263.3 346.2,263.3 "/>
<line class="st0" x1="347.5" y1="262.6" x2="343" y2="262.6"/>
<line class="st0" x1="343" y1="264" x2="347.5" y2="264"/>
<polyline class="st0" points="335.2,263.3 339.3,263.3 338.4,262.6 333.9,262.6 "/>
<polyline class="st0" points="333.9,264 338.4,264 339.3,263.3 342.1,263.3 "/>
<line class="st0" x1="338.4" y1="264" x2="343" y2="264"/>
<line class="st0" x1="343" y1="259.7" x2="347.5" y2="256.8"/>
<line class="st0" x1="338.4" y1="259.7" x2="333.9" y2="256.8"/>
<line class="st0" x1="143.5" y1="137.4" x2="135.9" y2="144.9"/>
<polyline class="st0" points="143.5,137.4 151,144.9 143.5,152.5 135.9,144.9 "/>
<polyline class="st0" points="373.4,144.9 365.8,137.4 358.3,144.9 365.8,152.5 373.4,144.9 "/>
<line class="st0" x1="215.8" y1="65" x2="208.2" y2="72.6"/>
<polyline class="st0" points="215.8,65 223.4,72.6 215.8,80.2 208.2,72.6 "/>
<polyline class="st0" points="301.1,72.6 293.5,65 285.9,72.6 293.5,80.2 301.1,72.6 "/>
<line class="st0" x1="225.4" y1="141.1" x2="175.4" y2="191"/>
<line class="st0" x1="175.4" y1="206.8" x2="175.4" y2="191"/>
<line class="st0" x1="241.1" y1="141.1" x2="225.4" y2="141.1"/>
<polyline class="st0" points="241.1,141.1 234.4,145.7 227.9,150.6 221.5,155.6 215.3,160.9 209.3,166.3 203.4,172 "/>
<line class="st0" x1="225.4" y1="141.1" x2="225.4" y2="141.1"/>
<line class="st0" x1="241.1" y1="141.1" x2="241.1" y2="141.1"/>
<polyline class="st0" points="203.4,172 198.3,177.4 193.3,183 188.6,188.7 184,194.6 179.6,200.6 175.4,206.8 "/>
<line class="st0" x1="71.1" y1="541" x2="84.7" y2="541"/>
<line class="st0" x1="84.7" y1="231.8" x2="84.7" y2="215.3"/>
<polyline class="st0" points="84.7,231.8 83.3,231.8 84.7,245.4 "/>
<line class="st0" x1="84.7" y1="541" x2="84.7" y2="311.1"/>
<line class="st0" x1="84.7" y1="295.4" x2="84.7" y2="245.4"/>
<line class="st0" x1="438.2" y1="541" x2="424.6" y2="541"/>
<line class="st0" x1="424.6" y1="231.8" x2="424.6" y2="215.3"/>
<polyline class="st0" points="424.6,231.8 426,231.8 424.6,245.4 "/>
<line class="st0" x1="260" y1="50.7" x2="261.4" y2="33"/>
<polyline class="st0" points="260,50.7 261.4,52.2 288,78.7 "/>
<line class="st0" x1="295.5" y1="86.3" x2="333.9" y2="124.6"/>
<path class="st0" d="M347.5,138.2l77.1,77.1c0.1,0,0.2-0.1,0.2-0.1c-0.1-6.4-0.2-12.7-0.2-19.1"/>
<line class="st0" x1="249.3" y1="50.7" x2="247.9" y2="33"/>
<line class="st0" x1="249.3" y1="50.7" x2="247.9" y2="52.2"/>
<line class="st0" x1="168.6" y1="275.4" x2="175.4" y2="266.8"/>
<line class="st0" x1="168.6" y1="275.4" x2="161.8" y2="266.8"/>
<line class="st0" x1="161.8" y1="266.8" x2="161.8" y2="264"/>
<line class="st0" x1="175.4" y1="266.8" x2="175.4" y2="264"/>
<line class="st0" x1="161.8" y1="262.6" x2="161.8" y2="259.7"/>
<line class="st0" x1="175.4" y1="262.6" x2="175.4" y2="259.7"/>
<line class="st0" x1="163.1" y1="263.3" x2="161.8" y2="262.6"/>
<line class="st0" x1="161.8" y1="264" x2="163.1" y2="263.3"/>
<line class="st0" x1="174.1" y1="263.3" x2="175.4" y2="262.6"/>
<line class="st0" x1="175.4" y1="264" x2="174.1" y2="263.3"/>
<line class="st0" x1="161.8" y1="231.8" x2="161.8" y2="138.2"/>
<line class="st0" x1="161.8" y1="259.7" x2="161.8" y2="256.8"/>
<polyline class="st0" points="175.4,259.7 175.4,256.8 175.4,236.6 "/>
<line class="st0" x1="175.4" y1="235.5" x2="175.4" y2="206.8"/>
<line class="st0" x1="175.4" y1="191" x2="175.4" y2="141.1"/>
<line class="st0" x1="175.4" y1="127.5" x2="175.4" y2="124.6"/>
<line class="st0" x1="163.2" y1="231.8" x2="163.2" y2="231.8"/>
<line class="st0" x1="161.8" y1="231.8" x2="163.2" y2="231.8"/>
<line class="st0" x1="161.8" y1="138.2" x2="175.4" y2="124.6"/>
<line class="st0" x1="340.7" y1="275.4" x2="347.5" y2="266.8"/>
<line class="st0" x1="340.7" y1="275.4" x2="333.9" y2="266.8"/>
<line class="st0" x1="347.5" y1="266.8" x2="347.5" y2="264"/>
<line class="st0" x1="333.9" y1="266.8" x2="333.9" y2="264"/>
<line class="st0" x1="347.5" y1="262.6" x2="347.5" y2="259.7"/>
<line class="st0" x1="333.9" y1="262.6" x2="333.9" y2="259.7"/>
<line class="st0" x1="346.2" y1="263.3" x2="347.5" y2="262.6"/>
<line class="st0" x1="347.5" y1="264" x2="346.2" y2="263.3"/>
<line class="st0" x1="335.2" y1="263.3" x2="333.9" y2="262.6"/>
<line class="st0" x1="333.9" y1="264" x2="335.2" y2="263.3"/>
<line class="st0" x1="347.5" y1="231.8" x2="347.5" y2="138.2"/>
<line class="st0" x1="347.5" y1="259.7" x2="347.5" y2="256.8"/>
<line class="st0" x1="333.9" y1="259.7" x2="333.9" y2="256.8"/>
<line class="st0" x1="347.5" y1="256.8" x2="347.5" y2="245.4"/>
<line class="st0" x1="347.5" y1="231.8" x2="346.1" y2="231.8"/>
<line class="st0" x1="347.5" y1="138.2" x2="333.9" y2="124.6"/>
<line class="st0" x1="334.9" y1="123.6" x2="347.5" y2="138.2"/>
<line class="st0" x1="334.9" y1="123.6" x2="333.9" y2="124.6"/>
<line class="st0" x1="347.5" y1="245.4" x2="358.9" y2="245.4"/>
<line class="st0" x1="374.6" y1="245.4" x2="424.6" y2="245.4"/>
<line class="st0" x1="260" y1="31.5" x2="257.5" y2="29"/>
<line class="st0" x1="251.8" y1="29" x2="249.3" y2="31.5"/>
<line class="st0" x1="260" y1="42.6" x2="260" y2="31.5"/>
<line class="st0" x1="249.3" y1="42.6" x2="260" y2="42.6"/>
<line class="st0" x1="249.3" y1="42.6" x2="249.3" y2="31.5"/>
<line class="st0" x1="251.8" y1="29" x2="257.5" y2="29"/>
<line class="st0" x1="283.9" y1="141.1" x2="333.9" y2="191"/>
<line class="st0" x1="268.2" y1="141.1" x2="283.9" y2="141.1"/>
<polyline class="st0" points="268.2,141.1 274.9,145.7 281.4,150.6 287.8,155.6 294,160.9 300,166.3 305.9,172 "/>
<line class="st0" x1="316" y1="183" x2="320.7" y2="188.7"/>
<line class="st0" x1="305.9" y1="172" x2="311" y2="177.4"/>
<line class="st0" x1="329.7" y1="200.6" x2="333.9" y2="206.8"/>
<line class="st0" x1="325.3" y1="194.6" x2="329.7" y2="200.6"/>
<line class="st0" x1="320.7" y1="188.7" x2="325.3" y2="194.6"/>
<line class="st0" x1="311" y1="177.4" x2="316" y2="183"/>
<line class="st0" x1="268.2" y1="141.1" x2="268.2" y2="141.1"/>
<line class="st0" x1="283.9" y1="141.1" x2="283.9" y2="141.1"/>
<line class="st0" x1="374.6" y1="245.4" x2="424.6" y2="295.4"/>
<line class="st0" x1="358.9" y1="245.4" x2="374.6" y2="245.4"/>
<polyline class="st0" points="358.9,245.4 365.6,250 372.1,254.9 378.5,260 384.7,265.2 390.7,270.7 396.5,276.3 "/>
<line class="st0" x1="406.6" y1="287.3" x2="411.4" y2="293"/>
<line class="st0" x1="396.5" y1="276.3" x2="401.7" y2="281.7"/>
<line class="st0" x1="420.4" y1="304.9" x2="424.6" y2="311.1"/>
<line class="st0" x1="416" y1="298.9" x2="420.4" y2="304.9"/>
<line class="st0" x1="411.4" y1="293" x2="416" y2="298.9"/>
<line class="st0" x1="401.7" y1="281.7" x2="406.6" y2="287.3"/>
<line class="st0" x1="424.6" y1="311.1" x2="424.6" y2="295.4"/>
<line class="st0" x1="134.7" y1="245.4" x2="84.7" y2="295.4"/>
<line class="st0" x1="84.7" y1="311.1" x2="84.7" y2="295.4"/>
<polyline class="st0" points="150.4,245.4 143.7,250 137.2,254.9 130.8,260 124.6,265.2 118.6,270.7 112.8,276.3 107.6,281.7 
	102.7,287.3 97.9,293 93.3,298.9 88.9,304.9 84.7,311.1 "/>
<line class="st0" x1="261.4" y1="127.5" x2="247.9" y2="127.5"/>
<line class="st0" x1="261.4" y1="127.5" x2="261.4" y2="120.4"/>
<line class="st0" x1="261.4" y1="105.2" x2="261.4" y2="52.2"/>
<polyline class="st0" points="250.7,148.7 258.6,148.7 260.7,146.6 "/>
<line class="st0" x1="248.6" y1="141.1" x2="248.6" y2="146.6"/>
<line class="st0" x1="248.6" y1="141.1" x2="260.7" y2="141.1"/>
<line class="st0" x1="260.7" y1="146.6" x2="260.7" y2="141.1"/>
<line class="st0" x1="248.6" y1="146.6" x2="250.7" y2="148.7"/>
<line class="st0" x1="333.9" y1="127.5" x2="333.9" y2="141.1"/>
<line class="st0" x1="175.4" y1="127.5" x2="175.4" y2="141.1"/>
<line class="st0" x1="261.4" y1="105.2" x2="288" y2="78.7"/>
<line class="st0" x1="261.4" y1="120.4" x2="261.4" y2="105.2"/>
<line class="st0" x1="288" y1="78.7" x2="295.5" y2="86.3"/>
<polyline class="st0" points="261.4,120.4 263.4,116.7 265.5,113.2 267.8,109.9 270.2,106.6 272.9,103.5 275.7,100.5 278.7,97.7 
	281.8,95.1 285,92.6 288.4,90.3 291.9,88.2 295.5,86.3 "/>
<line class="st0" x1="247.9" y1="105.2" x2="221.3" y2="78.7"/>
<polyline class="st0" points="247.9,120.4 245.9,116.7 243.8,113.2 241.5,109.9 239.1,106.6 236.4,103.5 233.6,100.5 230.6,97.7 
	227.5,95.1 224.3,92.6 220.9,90.3 217.4,88.2 213.8,86.3 "/>
<line class="st0" x1="259.3" y1="39.5" x2="259.2" y2="39.2"/>
<line class="st0" x1="259.2" y1="39.7" x2="259.3" y2="39.5"/>
<line class="st0" x1="259.1" y1="40" x2="259.2" y2="39.7"/>
<line class="st0" x1="258.9" y1="40.1" x2="259.1" y2="40"/>
<line class="st0" x1="258.6" y1="40.2" x2="258.9" y2="40.1"/>
<line class="st0" x1="258.3" y1="40.1" x2="258.6" y2="40.2"/>
<line class="st0" x1="258.1" y1="40" x2="258.3" y2="40.1"/>
<line class="st0" x1="257.9" y1="39.7" x2="258.1" y2="40"/>
<line class="st0" x1="257.9" y1="39.5" x2="257.9" y2="39.7"/>
<line class="st0" x1="257.9" y1="39.2" x2="257.9" y2="39.5"/>
<line class="st0" x1="258.1" y1="39" x2="257.9" y2="39.2"/>
<line class="st0" x1="258.3" y1="38.8" x2="258.1" y2="39"/>
<line class="st0" x1="258.6" y1="38.7" x2="258.3" y2="38.8"/>
<line class="st0" x1="258.9" y1="38.8" x2="258.6" y2="38.7"/>
<line class="st0" x1="259.1" y1="39" x2="258.9" y2="38.8"/>
<line class="st0" x1="259.2" y1="39.2" x2="259.1" y2="39"/>
<polyline class="st0" points="259.3,43.7 259.2,43.5 259.1,43.2 258.9,43.1 258.6,43 258.3,43.1 258.1,43.2 257.9,43.5 257.9,43.7 
	257.9,44 258.1,44.2 258.3,44.4 258.6,44.5 258.9,44.4 259.1,44.2 259.2,44 259.3,43.7 "/>
<polyline class="st0" points="429.6,211 429.6,210.8 429.4,210.5 429.2,210.4 428.9,210.3 428.6,210.4 428.4,210.5 428.2,210.8 
	428.2,211 428.2,211.3 428.4,211.5 428.6,211.7 428.9,211.8 429.2,211.7 429.4,211.5 429.6,211.3 429.6,211 "/>
<polyline class="st0" points="429.6,205.3 429.6,205.1 429.4,204.8 429.2,204.7 428.9,204.6 428.6,204.7 428.4,204.8 428.2,205.1 
	428.2,205.3 428.2,205.6 428.4,205.8 428.6,206 428.9,206 429.2,206 429.4,205.8 429.6,205.6 429.6,205.3 "/>
<line class="st0" x1="251.4" y1="39.5" x2="251.4" y2="39.2"/>
<line class="st0" x1="251.4" y1="39.7" x2="251.4" y2="39.5"/>
<line class="st0" x1="251.2" y1="40" x2="251.4" y2="39.7"/>
<line class="st0" x1="251" y1="40.1" x2="251.2" y2="40"/>
<line class="st0" x1="250.7" y1="40.2" x2="251" y2="40.1"/>
<line class="st0" x1="250.5" y1="40.1" x2="250.7" y2="40.2"/>
<line class="st0" x1="250.2" y1="40" x2="250.5" y2="40.1"/>
<line class="st0" x1="250.1" y1="39.7" x2="250.2" y2="40"/>
<line class="st0" x1="250" y1="39.5" x2="250.1" y2="39.7"/>
<line class="st0" x1="250.1" y1="39.2" x2="250" y2="39.5"/>
<line class="st0" x1="250.2" y1="39" x2="250.1" y2="39.2"/>
<line class="st0" x1="250.5" y1="38.8" x2="250.2" y2="39"/>
<line class="st0" x1="250.7" y1="38.7" x2="250.5" y2="38.8"/>
<line class="st0" x1="251" y1="38.8" x2="250.7" y2="38.7"/>
<line class="st0" x1="251.2" y1="39" x2="251" y2="38.8"/>
<line class="st0" x1="251.4" y1="39.2" x2="251.2" y2="39"/>
<polyline class="st0" points="251.4,43.7 251.4,43.5 251.2,43.2 251,43.1 250.7,43 250.5,43.1 250.2,43.2 250.1,43.5 250,43.7 
	250.1,44 250.2,44.2 250.5,44.4 250.7,44.5 251,44.4 251.2,44.2 251.4,44 251.4,43.7 "/>
<polyline class="st0" points="81.1,211 81.1,210.8 80.9,210.5 80.7,210.4 80.4,210.3 80.1,210.4 79.9,210.5 79.8,210.8 79.7,211 
	79.8,211.3 79.9,211.5 80.1,211.7 80.4,211.8 80.7,211.7 80.9,211.5 81.1,211.3 81.1,211 "/>
<polyline class="st0" points="81.1,205.3 81.1,205.1 80.9,204.8 80.7,204.7 80.4,204.6 80.1,204.7 79.9,204.8 79.8,205.1 
	79.7,205.3 79.8,205.6 79.9,205.8 80.1,206 80.4,206 80.7,206 80.9,205.8 81.1,205.6 81.1,205.3 "/>
<polyline class="st0" points="170.1,125 170.1,124.7 169.9,124.5 169.7,124.4 169.4,124.3 169.1,124.4 168.9,124.5 168.8,124.7 
	168.7,125 168.8,125.3 168.9,125.5 169.1,125.7 169.4,125.7 169.7,125.7 169.9,125.5 170.1,125.3 170.1,125 "/>
<polyline class="st0" points="165.9,129.9 165.9,129.6 165.7,129.4 165.5,129.2 165.2,129.2 165,129.2 164.7,129.4 164.6,129.6 
	164.5,129.9 164.6,130.2 164.7,130.4 165,130.5 165.2,130.6 165.5,130.5 165.7,130.4 165.9,130.2 165.9,129.9 "/>
<polyline class="st0" points="340.6,125 340.5,124.7 340.4,124.5 340.2,124.4 339.9,124.3 339.6,124.4 339.4,124.5 339.2,124.7 
	339.2,125 339.2,125.3 339.4,125.5 339.6,125.7 339.9,125.7 340.2,125.7 340.4,125.5 340.5,125.3 340.6,125 "/>
<polyline class="st0" points="344.8,129.9 344.7,129.6 344.6,129.4 344.4,129.2 344.1,129.2 343.8,129.2 343.6,129.4 343.4,129.6 
	343.4,129.9 343.4,130.2 343.6,130.4 343.8,130.5 344.1,130.6 344.4,130.5 344.6,130.4 344.7,130.2 344.8,129.9 "/>
<polyline class="st0" points="257.2,131.8 257.2,131.5 257.4,131.3 257.6,131.1 257.9,131.1 258.1,131.1 258.4,131.3 258.5,131.5 
	258.6,131.8 258.5,132.1 258.4,132.3 258.1,132.4 257.9,132.5 257.6,132.4 257.4,132.3 257.2,132.1 257.2,131.8 "/>
<polyline class="st0" points="253.9,134.6 254,134.4 254.1,134.1 254.4,134 254.7,133.9 254.9,134 255.2,134.1 255.3,134.4 
	255.4,134.6 255.3,134.9 255.2,135.1 254.9,135.3 254.7,135.4 254.4,135.3 254.1,135.1 254,134.9 253.9,134.6 "/>
<polyline class="st0" points="250.7,131.8 250.8,131.5 250.9,131.3 251.2,131.1 251.4,131.1 251.7,131.1 251.9,131.3 252.1,131.5 
	252.2,131.8 252.1,132.1 251.9,132.3 251.7,132.4 251.4,132.5 251.2,132.4 250.9,132.3 250.8,132.1 250.7,131.8 "/>
<polyline class="st0" points="172.5,204.3 172.5,204 172.3,203.8 172.1,203.6 171.8,203.6 171.5,203.6 171.3,203.8 171.2,204 
	171.1,204.3 171.2,204.6 171.3,204.8 171.5,204.9 171.8,205 172.1,204.9 172.3,204.8 172.5,204.6 172.5,204.3 "/>
<polyline class="st0" points="239.3,137.5 239.3,137.2 239.1,137 238.9,136.8 238.6,136.8 238.3,136.8 238.1,137 237.9,137.2 
	237.9,137.5 237.9,137.8 238.1,138 238.3,138.2 238.6,138.2 238.9,138.2 239.1,138 239.3,137.8 239.3,137.5 "/>
<polyline class="st0" points="338.2,204.3 338.1,204 338,203.8 337.8,203.6 337.5,203.6 337.2,203.6 337,203.8 336.8,204 
	336.8,204.3 336.8,204.6 337,204.8 337.2,204.9 337.5,205 337.8,204.9 338,204.8 338.1,204.6 338.2,204.3 "/>
<polyline class="st0" points="271.4,137.5 271.4,137.2 271.2,137 271,136.8 270.7,136.8 270.4,136.8 270.2,137 270,137.2 270,137.5 
	270,137.8 270.2,138 270.4,138.2 270.7,138.2 271,138.2 271.2,138 271.4,137.8 271.4,137.5 "/>
<polyline class="st0" points="428.9,308.6 428.8,308.4 428.7,308.1 428.5,308 428.2,307.9 427.9,308 427.7,308.1 427.5,308.4 
	427.5,308.6 427.5,308.9 427.7,309.1 427.9,309.3 428.2,309.3 428.5,309.3 428.7,309.1 428.8,308.9 428.9,308.6 "/>
<polyline class="st0" points="362.1,241.8 362,241.6 361.9,241.3 361.7,241.2 361.4,241.1 361.1,241.2 360.9,241.3 360.7,241.6 
	360.7,241.8 360.7,242.1 360.9,242.3 361.1,242.5 361.4,242.6 361.7,242.5 361.9,242.3 362,242.1 362.1,241.8 "/>
<polyline class="st0" points="81.8,308.6 81.8,308.4 81.6,308.1 81.4,308 81.1,307.9 80.9,308 80.6,308.1 80.5,308.4 80.4,308.6 
	80.5,308.9 80.6,309.1 80.9,309.3 81.1,309.3 81.4,309.3 81.6,309.1 81.8,308.9 81.8,308.6 "/>
<polyline class="st0" points="148.6,241.8 148.6,241.6 148.4,241.3 148.2,241.2 147.9,241.1 147.6,241.2 147.4,241.3 147.3,241.6 
	147.2,241.8 147.3,242.1 147.4,242.3 147.6,242.5 147.9,242.6 148.2,242.5 148.4,242.3 148.6,242.1 148.6,241.8 "/>
<polyline class="st0" points="333.9,141.1 335.3,141.1 333.9,127.5 "/>
<line class="st0" x1="424.6" y1="295.4" x2="424.6" y2="245.4"/>
<line class="st0" x1="424.6" y1="196.1" x2="373.4" y2="144.9"/>
<line class="st0" x1="84.7" y1="215.3" x2="161.8" y2="138.2"/>
<polyline class="st0" points="161.8,256.8 161.8,245.4 161.8,245.4 "/>
<line class="st0" x1="163.2" y1="231.8" x2="161.8" y2="245.4"/>
<line class="st0" x1="134.7" y1="245.4" x2="84.7" y2="245.4"/>
<line class="st0" x1="347.5" y1="245.4" x2="347.5" y2="245.4"/>
<polyline class="st0" points="346.1,231.8 346.1,231.8 347.5,245.4 "/>
<line class="st0" x1="247.9" y1="105.2" x2="247.9" y2="52.2"/>
<polyline class="st0" points="257.5,29 254.7,26.2 251.8,29 "/>
<line class="st0" x1="261.4" y1="127.5" x2="333.9" y2="127.5"/>
<line class="st0" x1="225.4" y1="141.1" x2="175.4" y2="141.1"/>
<line class="st0" x1="424.6" y1="541" x2="424.6" y2="311.1"/>
<line class="st0" x1="247.9" y1="33" x2="215.8" y2="65"/>
<line class="st0" x1="135.9" y1="144.9" x2="84.7" y2="196.1"/>
<polyline class="st0" points="161.8,245.4 150.4,245.4 134.7,245.4 "/>
<line class="st0" x1="333.9" y1="206.8" x2="333.9" y2="191"/>
<polyline class="st0" points="247.9,127.5 247.9,120.4 247.9,105.2 "/>
<line class="st0" x1="261.4" y1="33" x2="260" y2="31.5"/>
<line class="st0" x1="249.3" y1="31.5" x2="247.9" y2="33"/>
<line class="st0" x1="175.4" y1="127.5" x2="247.9" y2="127.5"/>
<line class="st0" x1="241.1" y1="141.1" x2="225.4" y2="141.1"/>
<line class="st0" x1="365.8" y1="137.4" x2="301.1" y2="72.6"/>
<line class="st0" x1="175.4" y1="124.6" x2="213.8" y2="86.3"/>
<line class="st0" x1="208.2" y1="72.6" x2="143.5" y2="137.4"/>
<polyline class="st0" points="333.9,256.8 333.9,236.6 333.9,236.6 "/>
<line class="st0" x1="333.9" y1="235.5" x2="333.9" y2="206.8"/>
<line class="st0" x1="333.9" y1="191" x2="333.9" y2="141.1"/>
<line class="st0" x1="293.5" y1="65" x2="261.4" y2="33"/>
<polyline class="st0" points="213.8,86.3 221.3,78.7 247.9,52.2 "/>
<line class="st0" x1="333.9" y1="235.5" x2="333.9" y2="235.5"/>
<line class="st0" x1="333.9" y1="127.5" x2="333.9" y2="124.6"/>
<polyline class="st0" points="333.9,141.1 283.9,141.1 268.2,141.1 "/>
<line class="st0" x1="248.6" y1="141.1" x2="241.1" y2="141.1"/>
<line class="st0" x1="175.4" y1="236.6" x2="175.4" y2="236.6"/>
<line class="st0" x1="333.9" y1="235.6" x2="333.9" y2="235.5"/>
<line class="st0" x1="268.2" y1="141.1" x2="260.7" y2="141.1"/>
<line class="st0" x1="175.4" y1="235.5" x2="175.4" y2="235.5"/>
<line class="st0" x1="333.9" y1="235.7" x2="333.9" y2="235.6"/>
<line class="st0" x1="175.4" y1="235.6" x2="175.4" y2="235.5"/>
<line class="st0" x1="333.9" y1="235.8" x2="333.9" y2="235.7"/>
<line class="st0" x1="175.4" y1="235.7" x2="175.4" y2="235.6"/>
<line class="st0" x1="333.9" y1="235.9" x2="333.9" y2="235.8"/>
<line class="st0" x1="175.4" y1="235.8" x2="175.4" y2="235.7"/>
<line class="st0" x1="333.9" y1="236.1" x2="333.9" y2="235.9"/>
<line class="st0" x1="175.4" y1="235.9" x2="175.4" y2="235.8"/>
<line class="st0" x1="333.9" y1="236.2" x2="333.9" y2="236.1"/>
<line class="st0" x1="175.4" y1="236.1" x2="175.4" y2="235.9"/>
<line class="st0" x1="333.9" y1="236.3" x2="333.9" y2="236.2"/>
<line class="st0" x1="175.4" y1="236.2" x2="175.4" y2="236.1"/>
<line class="st0" x1="333.9" y1="236.4" x2="333.9" y2="236.3"/>
<line class="st0" x1="175.4" y1="236.3" x2="175.4" y2="236.2"/>
<polyline class="st0" points="333.9,236.6 333.9,236.5 333.9,236.4 "/>
<line class="st0" x1="175.4" y1="236.4" x2="175.4" y2="236.3"/>
<polyline class="st0" points="175.4,236.6 175.4,236.5 175.4,236.4 "/>
<polyline class="st0" points="424.6,215.3 424.6,196.1 438.2,209.7 "/>
<polyline class="st0" points="84.7,215.3 84.7,196.1 71.1,209.7 "/>
<line class="st0" x1="71.1" y1="541" x2="71.1" y2="209.7"/>
<line class="st0" x1="84.7" y1="231.8" x2="163.2" y2="231.8"/>
<line class="st0" x1="438.2" y1="541" x2="438.2" y2="209.7"/>
<line class="st0" x1="346.1" y1="231.8" x2="424.6" y2="231.8"/>
<line class="st0" x1="203.4" y1="172" x2="200.7" y2="174.9"/>
<line class="st0" x1="305.9" y1="172" x2="308.6" y2="174.9"/>
<line class="st0" x1="396.5" y1="276.3" x2="399.3" y2="279.3"/>
<line class="st0" x1="112.8" y1="276.3" x2="110" y2="279.3"/>
</svg>
